<svg width="33" height="32" viewBox="0 0 33 32" fill="none" xmlns="http://www.w3.org/2000/svg">
<path d="M25.7411 7.52194C24.0415 6.74207 22.2189 6.1675 20.3132 5.83842C20.2785 5.83207 20.2438 5.84794 20.226 5.87968C19.9916 6.29659 19.7319 6.84047 19.5501 7.26797C17.5004 6.96111 15.4613 6.96111 13.4537 7.26797C13.2718 6.83097 13.0028 6.29659 12.7673 5.87968C12.7494 5.849 12.7148 5.83312 12.68 5.83842C10.7754 6.16645 8.95284 6.74102 7.25214 7.52194C7.23742 7.52829 7.2248 7.53888 7.21642 7.55263C3.75931 12.7175 2.81227 17.7554 3.27686 22.7308C3.27896 22.7551 3.29262 22.7784 3.31154 22.7932C5.59244 24.4683 7.80189 25.4852 9.9703 26.1592C10.005 26.1698 10.0418 26.1571 10.0639 26.1285C10.5768 25.428 11.034 24.6895 11.4261 23.9127C11.4492 23.8673 11.4271 23.8133 11.3798 23.7953C10.6546 23.5202 9.96399 23.1847 9.29969 22.8038C9.24715 22.7731 9.24294 22.698 9.29128 22.662C9.43107 22.5572 9.5709 22.4482 9.70438 22.3382C9.72853 22.3181 9.76219 22.3139 9.79058 22.3266C14.1548 24.3191 18.8795 24.3191 23.1922 22.3266C23.2206 22.3128 23.2542 22.3171 23.2794 22.3372C23.4129 22.4472 23.5527 22.5572 23.6936 22.662C23.7419 22.698 23.7388 22.7731 23.6862 22.8038C23.0219 23.1921 22.3313 23.5202 21.605 23.7942C21.5577 23.8122 21.5367 23.8673 21.5598 23.9127C21.9603 24.6884 22.4175 25.427 22.921 26.1275C22.942 26.1571 22.9798 26.1698 23.0145 26.1592C25.1935 25.4852 27.4029 24.4683 29.6838 22.7932C29.7038 22.7784 29.7164 22.7562 29.7185 22.7319C30.2745 16.9797 28.7872 11.9831 25.7758 7.55368C25.7684 7.53888 25.7558 7.52829 25.7411 7.52194ZM12.0778 19.7013C10.7639 19.7013 9.68125 18.495 9.68125 17.0136C9.68125 15.5322 10.7429 14.3259 12.0778 14.3259C13.4232 14.3259 14.4953 15.5427 14.4743 17.0136C14.4743 18.495 13.4127 19.7013 12.0778 19.7013ZM20.9386 19.7013C19.6247 19.7013 18.5421 18.495 18.5421 17.0136C18.5421 15.5322 19.6037 14.3259 20.9386 14.3259C22.284 14.3259 23.3561 15.5427 23.3351 17.0136C23.3351 18.495 22.284 19.7013 20.9386 19.7013Z" fill="#6B7280"/>
</svg>
