<svg width="33" height="32" viewBox="0 0 33 32" fill="none" xmlns="http://www.w3.org/2000/svg">
<path fill-rule="evenodd" clip-rule="evenodd" d="M16.5 2.99561C9.13335 2.99561 3.16669 8.96227 3.16669 16.3289C3.16669 22.2289 6.98335 27.2123 12.2834 28.9789C12.95 29.0956 13.2 28.6956 13.2 28.3456C13.2 28.0289 13.1834 26.9789 13.1834 25.8623C9.83335 26.4789 8.96669 25.0456 8.70002 24.2956C8.55002 23.9123 7.90002 22.7289 7.33335 22.4123C6.86669 22.1623 6.20002 21.5456 7.31669 21.5289C8.36669 21.5123 9.11669 22.4956 9.36669 22.8956C10.5667 24.9123 12.4834 24.3456 13.25 23.9956C13.3667 23.1289 13.7167 22.5456 14.1 22.2123C11.1334 21.8789 8.03335 20.7289 8.03335 15.6289C8.03335 14.1789 8.55002 12.9789 9.40002 12.0456C9.26669 11.7123 8.80002 10.3456 9.53335 8.51227C9.53335 8.51227 10.65 8.16227 13.2 9.87894C14.2667 9.57894 15.4 9.42894 16.5334 9.42894C17.6667 9.42894 18.8 9.57894 19.8667 9.87894C22.4167 8.14561 23.5334 8.51227 23.5334 8.51227C24.2667 10.3456 23.8 11.7123 23.6667 12.0456C24.5167 12.9789 25.0334 14.1623 25.0334 15.6289C25.0334 20.7456 21.9167 21.8789 18.95 22.2123C19.4334 22.6289 19.85 23.4289 19.85 24.6789C19.85 26.4623 19.8334 27.8956 19.8334 28.3456C19.8334 28.6956 20.0834 29.1123 20.75 28.9789C23.3969 28.0854 25.697 26.3842 27.3264 24.115C28.9559 21.8457 29.8326 19.1226 29.8334 16.3289C29.8334 8.96227 23.8667 2.99561 16.5 2.99561Z" fill="#6B7280"/>
</svg>
