<svg width="33" height="32" viewBox="0 0 33 32" fill="none" xmlns="http://www.w3.org/2000/svg">
<path fill-rule="evenodd" clip-rule="evenodd" d="M29.8333 16C29.8333 23.3638 23.8638 29.3333 16.5 29.3333C9.13621 29.3333 3.16667 23.3638 3.16667 16C3.16667 8.63619 9.13621 2.66666 16.5 2.66666C23.8638 2.66666 29.8333 8.63619 29.8333 16ZM16.9778 12.5099C15.6809 13.0493 13.089 14.1658 9.20208 15.8593C8.57091 16.1103 8.24027 16.3558 8.21017 16.5959C8.1593 17.0017 8.66744 17.1615 9.3594 17.379C9.45352 17.4086 9.55104 17.4393 9.65102 17.4718C10.3318 17.6931 11.2476 17.952 11.7236 17.9623C12.1555 17.9716 12.6375 17.7936 13.1696 17.4282C16.8013 14.9767 18.676 13.7376 18.7937 13.7109C18.8767 13.692 18.9918 13.6683 19.0697 13.7376C19.1477 13.8069 19.14 13.9381 19.1318 13.9733C19.0814 14.1879 17.0868 16.0423 16.0546 17.002C15.7328 17.3012 15.5045 17.5134 15.4578 17.5618C15.3533 17.6704 15.2468 17.7731 15.1444 17.8718C14.5119 18.4815 14.0377 18.9387 15.1707 19.6853C15.7151 20.0441 16.1508 20.3408 16.5855 20.6368C17.0602 20.9601 17.5336 21.2825 18.1462 21.6841C18.3023 21.7864 18.4513 21.8927 18.5965 21.9962C19.1489 22.39 19.6453 22.7438 20.2584 22.6874C20.6147 22.6546 20.9827 22.3196 21.1696 21.3204C21.6113 18.9591 22.4796 13.8427 22.6802 11.7344C22.6978 11.5497 22.6757 11.3133 22.6579 11.2095C22.6402 11.1058 22.6031 10.9579 22.4682 10.8484C22.3084 10.7188 22.0618 10.6915 21.9515 10.6934C21.45 10.7023 20.6806 10.9698 16.9778 12.5099Z" fill="#6B7280"/>
</svg>
