<svg width="33" height="32" viewBox="0 0 33 32" fill="none" xmlns="http://www.w3.org/2000/svg">
<path d="M27.1033 10.5601C27.1195 10.7952 27.1195 11.0303 27.1195 11.2675C27.1195 18.4967 21.6161 26.8342 11.5529 26.8342V26.8298C8.58017 26.8342 5.66921 25.9827 3.16667 24.3771C3.59893 24.4291 4.03335 24.4551 4.46886 24.4562C6.9324 24.4584 9.32552 23.6318 11.2636 22.1097C8.92251 22.0653 6.86956 20.5388 6.15239 18.3104C6.97248 18.4685 7.81749 18.436 8.62242 18.2161C6.07005 17.7004 4.23377 15.4579 4.23377 12.8535C4.23377 12.8297 4.23377 12.807 4.23377 12.7842C4.99428 13.2078 5.8458 13.4429 6.71681 13.4689C4.31286 11.8623 3.57184 8.66422 5.02353 6.16385C7.80124 9.58182 11.8996 11.6597 16.299 11.8796C15.8581 9.97941 16.4605 7.98821 17.8818 6.65244C20.0854 4.58108 23.551 4.68725 25.6224 6.8897C26.8476 6.64811 28.022 6.19852 29.0967 5.56151C28.6882 6.82795 27.8335 7.90371 26.6916 8.58731C27.7761 8.45947 28.8356 8.16913 29.8333 7.72604C29.0988 8.82673 28.1736 9.78549 27.1033 10.5601Z" fill="#6B7280"/>
</svg>
