<svg width="1324" height="421" viewBox="0 0 1324 421" fill="none" xmlns="http://www.w3.org/2000/svg">
<path opacity="0.3" d="M862 228.5C862 334.815 775.815 421 669.5 421C563.185 421 477 334.815 477 228.5C477 122.185 563.185 36 669.5 36C775.815 36 862 122.185 862 228.5ZM548.77 228.5C548.77 295.177 602.823 349.23 669.5 349.23C736.177 349.23 790.23 295.177 790.23 228.5C790.23 161.823 736.177 107.77 669.5 107.77C602.823 107.77 548.77 161.823 548.77 228.5Z" fill="url(#paint0_linear_155_1202)"/>
<path d="M643.565 64.5386C687.05 57.6601 731.487 68.3377 767.099 94.2226L730.711 144.285C708.376 128.051 680.507 121.354 653.234 125.668L643.565 64.5386Z" fill="#4BDE51"/>
<path d="M767.122 94.2393C795.475 114.855 816.574 143.918 827.394 177.262L768.526 196.365C761.74 175.453 748.508 157.225 730.726 144.296L767.122 94.2393Z" fill="#E72AA6"/>
<path d="M827.365 177.172C832.751 193.737 835.497 211.048 835.5 228.467L773.61 228.479C773.608 217.554 771.886 206.698 768.508 196.308L827.365 177.172Z" fill="#42D6F7"/>
<path d="M535.222 130.901C548.039 113.268 564.204 98.3313 582.793 86.9447C601.382 75.5582 622.032 67.9446 643.564 64.5387L653.234 125.669C639.73 127.805 626.779 132.58 615.12 139.721C603.461 146.862 593.323 156.23 585.285 167.289L535.222 130.901Z" fill="#4B86DE"/>
<path d="M511.623 279.793C503.529 254.878 501.446 228.402 505.544 202.528C509.643 176.654 519.807 152.117 535.206 130.924L585.275 167.304C575.617 180.595 569.243 195.984 566.672 212.211C564.102 228.438 565.408 245.044 570.485 260.669L511.623 279.793Z" fill="#E8EB61"/>
<path d="M669.5 394.5C634.444 394.5 600.288 383.402 571.928 362.797C543.567 342.192 522.457 313.137 511.625 279.797L570.485 260.672C577.279 281.582 590.519 299.804 608.306 312.727C626.093 325.65 647.514 332.61 669.5 332.61V394.5Z" fill="#DE4B4B"/>
<path d="M835.5 228.5C835.5 250.299 831.206 271.885 822.864 292.025C814.522 312.165 802.294 330.465 786.88 345.88C771.465 361.294 753.165 373.522 733.025 381.864C712.885 390.206 691.299 394.5 669.5 394.5V332.61C683.172 332.61 696.71 329.917 709.341 324.685C721.972 319.453 733.449 311.784 743.117 302.117C752.784 292.449 760.453 280.972 765.685 268.341C770.917 255.71 773.61 242.172 773.61 228.5H835.5Z" fill="#8E55D6"/>
<path d="M2.31569 120V102.96H8.09969C9.90769 102.96 11.4117 103.344 12.6117 104.112C13.8277 104.864 14.7397 105.888 15.3477 107.184C15.9557 108.464 16.2597 109.888 16.2597 111.456C16.2597 113.184 15.9237 114.688 15.2517 115.968C14.5957 117.248 13.6517 118.24 12.4197 118.944C11.2037 119.648 9.76369 120 8.09969 120H2.31569ZM14.5797 111.456C14.5797 110.096 14.3237 108.888 13.8117 107.832C13.3157 106.776 12.5877 105.952 11.6277 105.36C10.6677 104.752 9.49169 104.448 8.09969 104.448H3.99569V118.512H8.09969C9.50769 118.512 10.6917 118.2 11.6517 117.576C12.6117 116.952 13.3397 116.112 13.8357 115.056C14.3317 113.984 14.5797 112.784 14.5797 111.456ZM24.5359 120.24C23.6399 120.24 22.8079 120.072 22.0399 119.736C21.2719 119.384 20.6079 118.912 20.0479 118.32C19.4879 117.712 19.0479 117.016 18.7279 116.232C18.4239 115.448 18.2719 114.608 18.2719 113.712C18.2719 112.544 18.5359 111.472 19.0639 110.496C19.6079 109.52 20.3519 108.744 21.2959 108.168C22.2399 107.576 23.3119 107.28 24.5119 107.28C25.7439 107.28 26.8159 107.576 27.7279 108.168C28.6559 108.76 29.3839 109.544 29.9119 110.52C30.4399 111.48 30.7039 112.536 30.7039 113.688C30.7039 113.816 30.7039 113.944 30.7039 114.072C30.7039 114.184 30.6959 114.272 30.6799 114.336H19.9759C20.0559 115.232 20.3039 116.032 20.7199 116.736C21.1519 117.424 21.7039 117.976 22.3759 118.392C23.0639 118.792 23.8079 118.992 24.6079 118.992C25.4239 118.992 26.1919 118.784 26.9119 118.368C27.6479 117.952 28.1599 117.408 28.4479 116.736L29.8639 117.12C29.6079 117.712 29.2159 118.248 28.6879 118.728C28.1599 119.208 27.5359 119.584 26.8159 119.856C26.1119 120.112 25.3519 120.24 24.5359 120.24ZM19.9279 113.16H29.1679C29.1039 112.248 28.8559 111.448 28.4239 110.76C28.0079 110.072 27.4559 109.536 26.7679 109.152C26.0959 108.752 25.3519 108.552 24.5359 108.552C23.7199 108.552 22.9759 108.752 22.3039 109.152C21.6319 109.536 21.0799 110.08 20.6479 110.784C20.2319 111.472 19.9919 112.264 19.9279 113.16ZM36.6138 120L31.5498 107.496H33.2538L37.5258 118.368L41.8218 107.496H43.4297L38.3658 120H36.6138ZM50.6688 120.24C49.7728 120.24 48.9408 120.072 48.1728 119.736C47.4048 119.384 46.7408 118.912 46.1808 118.32C45.6208 117.712 45.1808 117.016 44.8608 116.232C44.5568 115.448 44.4048 114.608 44.4048 113.712C44.4048 112.544 44.6688 111.472 45.1968 110.496C45.7408 109.52 46.4848 108.744 47.4288 108.168C48.3728 107.576 49.4448 107.28 50.6448 107.28C51.8768 107.28 52.9488 107.576 53.8608 108.168C54.7888 108.76 55.5168 109.544 56.0448 110.52C56.5728 111.48 56.8368 112.536 56.8368 113.688C56.8368 113.816 56.8368 113.944 56.8368 114.072C56.8368 114.184 56.8288 114.272 56.8128 114.336H46.1088C46.1888 115.232 46.4368 116.032 46.8528 116.736C47.2848 117.424 47.8368 117.976 48.5088 118.392C49.1968 118.792 49.9408 118.992 50.7408 118.992C51.5568 118.992 52.3248 118.784 53.0448 118.368C53.7808 117.952 54.2928 117.408 54.5808 116.736L55.9968 117.12C55.7408 117.712 55.3488 118.248 54.8208 118.728C54.2928 119.208 53.6688 119.584 52.9488 119.856C52.2448 120.112 51.4848 120.24 50.6688 120.24ZM46.0608 113.16H55.3008C55.2368 112.248 54.9888 111.448 54.5568 110.76C54.1408 110.072 53.5888 109.536 52.9008 109.152C52.2288 108.752 51.4848 108.552 50.6688 108.552C49.8528 108.552 49.1088 108.752 48.4368 109.152C47.7648 109.536 47.2128 110.08 46.7808 110.784C46.3648 111.472 46.1248 112.264 46.0608 113.16ZM59.4267 102.48H61.0587V117.168C61.0587 117.792 61.1707 118.2 61.3947 118.392C61.6187 118.584 61.8907 118.68 62.2107 118.68C62.4987 118.68 62.7867 118.648 63.0747 118.584C63.3627 118.52 63.6107 118.456 63.8187 118.392L64.1067 119.712C63.8027 119.84 63.4267 119.944 62.9787 120.024C62.5467 120.104 62.1707 120.144 61.8507 120.144C61.1147 120.144 60.5227 119.928 60.0747 119.496C59.6427 119.064 59.4267 118.472 59.4267 117.72V102.48ZM71.2218 120.24C70.3258 120.24 69.4938 120.072 68.7258 119.736C67.9738 119.384 67.3178 118.912 66.7578 118.32C66.2138 117.712 65.7898 117.024 65.4858 116.256C65.1818 115.472 65.0298 114.648 65.0298 113.784C65.0298 112.888 65.1818 112.056 65.4858 111.288C65.7898 110.504 66.2218 109.816 66.7818 109.224C67.3418 108.616 67.9978 108.144 68.7498 107.808C69.5178 107.456 70.3498 107.28 71.2458 107.28C72.1418 107.28 72.9658 107.456 73.7178 107.808C74.4698 108.144 75.1258 108.616 75.6858 109.224C76.2458 109.816 76.6778 110.504 76.9818 111.288C77.2858 112.056 77.4378 112.888 77.4378 113.784C77.4378 114.648 77.2858 115.472 76.9818 116.256C76.6778 117.024 76.2458 117.712 75.6858 118.32C75.1418 118.912 74.4858 119.384 73.7178 119.736C72.9658 120.072 72.1338 120.24 71.2218 120.24ZM66.6858 113.808C66.6858 114.736 66.8858 115.584 67.2858 116.352C67.7018 117.104 68.2538 117.704 68.9418 118.152C69.6298 118.584 70.3898 118.8 71.2218 118.8C72.0538 118.8 72.8138 118.576 73.5018 118.128C74.1898 117.68 74.7418 117.072 75.1578 116.304C75.5738 115.52 75.7818 114.672 75.7818 113.76C75.7818 112.832 75.5738 111.984 75.1578 111.216C74.7418 110.448 74.1898 109.84 73.5018 109.392C72.8138 108.944 72.0538 108.72 71.2218 108.72C70.3898 108.72 69.6298 108.952 68.9418 109.416C68.2698 109.88 67.7258 110.496 67.3098 111.264C66.8938 112.016 66.6858 112.864 66.6858 113.808ZM86.5512 120.24C85.5112 120.24 84.5752 119.968 83.7432 119.424C82.9272 118.88 82.2792 118.208 81.7992 117.408V125.112H80.1672V107.496H81.6312V109.92C82.1272 109.136 82.7912 108.504 83.6232 108.024C84.4552 107.528 85.3432 107.28 86.2872 107.28C87.1512 107.28 87.9432 107.464 88.6632 107.832C89.3832 108.184 90.0072 108.664 90.5352 109.272C91.0632 109.88 91.4712 110.576 91.7592 111.36C92.0632 112.128 92.2152 112.928 92.2152 113.76C92.2152 114.928 91.9752 116.008 91.4952 117C91.0312 117.976 90.3752 118.76 89.5272 119.352C88.6792 119.944 87.6872 120.24 86.5512 120.24ZM86.0952 118.8C86.7832 118.8 87.3992 118.664 87.9432 118.392C88.4872 118.104 88.9512 117.72 89.3352 117.24C89.7352 116.76 90.0392 116.224 90.2472 115.632C90.4552 115.024 90.5592 114.4 90.5592 113.76C90.5592 113.088 90.4392 112.448 90.1992 111.84C89.9752 111.232 89.6472 110.696 89.2152 110.232C88.7832 109.768 88.2872 109.4 87.7272 109.128C87.1672 108.856 86.5592 108.72 85.9032 108.72C85.4872 108.72 85.0552 108.8 84.6072 108.96C84.1592 109.12 83.7272 109.352 83.3112 109.656C82.9112 109.944 82.5752 110.272 82.3032 110.64C82.0312 111.008 81.8632 111.4 81.7992 111.816V115.656C82.0552 116.248 82.3992 116.784 82.8312 117.264C83.2632 117.728 83.7592 118.104 84.3192 118.392C84.8952 118.664 85.4872 118.8 86.0952 118.8ZM113.58 120H111.948V113.016C111.948 111.56 111.716 110.488 111.252 109.8C110.788 109.112 110.1 108.768 109.188 108.768C108.244 108.768 107.396 109.104 106.644 109.776C105.908 110.448 105.388 111.312 105.084 112.368V120H103.452V113.016C103.452 111.544 103.228 110.472 102.78 109.8C102.332 109.112 101.644 108.768 100.716 108.768C99.7877 108.768 98.9477 109.096 98.1957 109.752C97.4437 110.408 96.9157 111.272 96.6117 112.344V120H94.9797V107.496H96.4677V110.328C96.9957 109.352 97.6677 108.6 98.4837 108.072C99.3157 107.544 100.236 107.28 101.244 107.28C102.284 107.28 103.124 107.576 103.764 108.168C104.404 108.76 104.796 109.536 104.94 110.496C105.516 109.44 106.204 108.64 107.004 108.096C107.82 107.552 108.74 107.28 109.764 107.28C110.468 107.28 111.06 107.408 111.54 107.664C112.036 107.92 112.428 108.288 112.716 108.768C113.02 109.232 113.236 109.8 113.364 110.472C113.508 111.128 113.58 111.864 113.58 112.68V120ZM122.434 120.24C121.538 120.24 120.706 120.072 119.938 119.736C119.17 119.384 118.506 118.912 117.946 118.32C117.386 117.712 116.946 117.016 116.626 116.232C116.322 115.448 116.17 114.608 116.17 113.712C116.17 112.544 116.434 111.472 116.962 110.496C117.506 109.52 118.25 108.744 119.194 108.168C120.138 107.576 121.21 107.28 122.41 107.28C123.642 107.28 124.714 107.576 125.626 108.168C126.554 108.76 127.282 109.544 127.81 110.52C128.338 111.48 128.602 112.536 128.602 113.688C128.602 113.816 128.602 113.944 128.602 114.072C128.602 114.184 128.594 114.272 128.578 114.336H117.874C117.954 115.232 118.202 116.032 118.618 116.736C119.05 117.424 119.602 117.976 120.274 118.392C120.962 118.792 121.706 118.992 122.506 118.992C123.322 118.992 124.09 118.784 124.81 118.368C125.546 117.952 126.058 117.408 126.346 116.736L127.762 117.12C127.506 117.712 127.114 118.248 126.586 118.728C126.058 119.208 125.434 119.584 124.714 119.856C124.01 120.112 123.25 120.24 122.434 120.24ZM117.826 113.16H127.066C127.002 112.248 126.754 111.448 126.322 110.76C125.906 110.072 125.354 109.536 124.666 109.152C123.994 108.752 123.25 108.552 122.434 108.552C121.618 108.552 120.874 108.752 120.202 109.152C119.53 109.536 118.978 110.08 118.546 110.784C118.13 111.472 117.89 112.264 117.826 113.16ZM141.632 120H140V113.016C140 111.544 139.784 110.472 139.352 109.8C138.92 109.112 138.24 108.768 137.312 108.768C136.672 108.768 136.04 108.928 135.416 109.248C134.792 109.552 134.24 109.976 133.76 110.52C133.296 111.048 132.96 111.656 132.752 112.344V120H131.12V107.496H132.608V110.328C132.944 109.72 133.384 109.192 133.928 108.744C134.472 108.28 135.088 107.92 135.776 107.664C136.464 107.408 137.176 107.28 137.912 107.28C138.6 107.28 139.184 107.408 139.664 107.664C140.144 107.92 140.528 108.288 140.816 108.768C141.104 109.232 141.312 109.8 141.44 110.472C141.568 111.128 141.632 111.864 141.632 112.68V120ZM150.995 119.4C150.867 119.448 150.667 119.536 150.395 119.664C150.123 119.792 149.795 119.904 149.411 120C149.027 120.096 148.611 120.144 148.163 120.144C147.699 120.144 147.259 120.056 146.843 119.88C146.443 119.704 146.123 119.44 145.883 119.088C145.643 118.72 145.523 118.272 145.523 117.744V108.792H143.795V107.496H145.523V103.272H147.155V107.496H150.035V108.792H147.155V117.288C147.187 117.736 147.347 118.072 147.635 118.296C147.939 118.52 148.283 118.632 148.667 118.632C149.115 118.632 149.523 118.56 149.891 118.416C150.259 118.256 150.483 118.144 150.563 118.08L150.995 119.4ZM170.88 104.448H164.808V120H163.128V104.448H157.056V102.96H170.88V104.448ZM175.802 120.24C174.906 120.24 174.074 120.072 173.306 119.736C172.538 119.384 171.874 118.912 171.314 118.32C170.754 117.712 170.314 117.016 169.994 116.232C169.69 115.448 169.538 114.608 169.538 113.712C169.538 112.544 169.802 111.472 170.33 110.496C170.874 109.52 171.618 108.744 172.562 108.168C173.506 107.576 174.578 107.28 175.778 107.28C177.01 107.28 178.082 107.576 178.994 108.168C179.922 108.76 180.65 109.544 181.178 110.52C181.706 111.48 181.97 112.536 181.97 113.688C181.97 113.816 181.97 113.944 181.97 114.072C181.97 114.184 181.962 114.272 181.946 114.336H171.242C171.322 115.232 171.57 116.032 171.986 116.736C172.418 117.424 172.97 117.976 173.642 118.392C174.33 118.792 175.074 118.992 175.874 118.992C176.69 118.992 177.458 118.784 178.178 118.368C178.914 117.952 179.426 117.408 179.714 116.736L181.13 117.12C180.874 117.712 180.482 118.248 179.954 118.728C179.426 119.208 178.802 119.584 178.082 119.856C177.378 120.112 176.618 120.24 175.802 120.24ZM171.194 113.16H180.434C180.37 112.248 180.122 111.448 179.69 110.76C179.274 110.072 178.722 109.536 178.034 109.152C177.362 108.752 176.618 108.552 175.802 108.552C174.986 108.552 174.242 108.752 173.57 109.152C172.898 109.536 172.346 110.08 171.914 110.784C171.498 111.472 171.258 112.264 171.194 113.16ZM183.479 116.4C183.479 115.616 183.704 114.944 184.152 114.384C184.6 113.808 185.216 113.368 186 113.064C186.8 112.744 187.72 112.584 188.76 112.584C189.368 112.584 190 112.632 190.656 112.728C191.312 112.824 191.896 112.968 192.408 113.16V112.104C192.408 111.048 192.096 110.208 191.472 109.584C190.848 108.96 189.984 108.648 188.88 108.648C188.208 108.648 187.544 108.776 186.888 109.032C186.248 109.272 185.576 109.632 184.872 110.112L184.248 108.96C185.064 108.4 185.864 107.984 186.648 107.712C187.432 107.424 188.232 107.28 189.048 107.28C190.584 107.28 191.8 107.72 192.696 108.6C193.592 109.48 194.04 110.696 194.04 112.248V118.032C194.04 118.256 194.088 118.424 194.184 118.536C194.28 118.632 194.432 118.688 194.64 118.704V120C194.464 120.016 194.312 120.032 194.184 120.048C194.056 120.064 193.96 120.064 193.896 120.048C193.496 120.032 193.192 119.904 192.984 119.664C192.776 119.424 192.664 119.168 192.648 118.896L192.624 117.984C192.064 118.704 191.336 119.264 190.44 119.664C189.544 120.048 188.632 120.24 187.704 120.24C186.904 120.24 186.176 120.072 185.52 119.736C184.88 119.384 184.376 118.92 184.008 118.344C183.656 117.752 183.479 117.104 183.479 116.4ZM191.856 117.36C192.032 117.136 192.168 116.92 192.264 116.712C192.36 116.504 192.408 116.32 192.408 116.16V114.336C191.864 114.128 191.296 113.968 190.704 113.856C190.128 113.744 189.544 113.688 188.952 113.688C187.784 113.688 186.84 113.92 186.12 114.384C185.4 114.848 185.04 115.48 185.04 116.28C185.04 116.744 185.16 117.184 185.4 117.6C185.64 118 185.992 118.336 186.456 118.608C186.92 118.864 187.464 118.992 188.088 118.992C188.872 118.992 189.6 118.84 190.272 118.536C190.96 118.232 191.488 117.84 191.856 117.36ZM216.166 120H214.534V113.016C214.534 111.56 214.302 110.488 213.838 109.8C213.374 109.112 212.686 108.768 211.774 108.768C210.83 108.768 209.982 109.104 209.23 109.776C208.494 110.448 207.974 111.312 207.67 112.368V120H206.038V113.016C206.038 111.544 205.814 110.472 205.366 109.8C204.918 109.112 204.23 108.768 203.302 108.768C202.374 108.768 201.534 109.096 200.782 109.752C200.03 110.408 199.502 111.272 199.198 112.344V120H197.566V107.496H199.054V110.328C199.582 109.352 200.254 108.6 201.07 108.072C201.902 107.544 202.822 107.28 203.83 107.28C204.87 107.28 205.71 107.576 206.35 108.168C206.99 108.76 207.382 109.536 207.526 110.496C208.102 109.44 208.79 108.64 209.59 108.096C210.406 107.552 211.326 107.28 212.35 107.28C213.054 107.28 213.646 107.408 214.126 107.664C214.622 107.92 215.014 108.288 215.302 108.768C215.606 109.232 215.822 109.8 215.95 110.472C216.094 111.128 216.166 111.864 216.166 112.68V120Z" fill="white"/>
<path d="M124.455 234V220.128L118.287 230.904H117.231L111.039 220.128V234H109.359V216.96H111.087L117.735 228.624L124.431 216.96H126.135V234H124.455ZM128.944 230.4C128.944 229.616 129.168 228.944 129.616 228.384C130.064 227.808 130.68 227.368 131.464 227.064C132.264 226.744 133.184 226.584 134.224 226.584C134.832 226.584 135.464 226.632 136.12 226.728C136.776 226.824 137.36 226.968 137.872 227.16V226.104C137.872 225.048 137.56 224.208 136.936 223.584C136.312 222.96 135.448 222.648 134.344 222.648C133.672 222.648 133.008 222.776 132.352 223.032C131.712 223.272 131.04 223.632 130.336 224.112L129.712 222.96C130.528 222.4 131.328 221.984 132.112 221.712C132.896 221.424 133.696 221.28 134.512 221.28C136.048 221.28 137.264 221.72 138.16 222.6C139.056 223.48 139.504 224.696 139.504 226.248V232.032C139.504 232.256 139.552 232.424 139.648 232.536C139.744 232.632 139.896 232.688 140.104 232.704V234C139.928 234.016 139.776 234.032 139.648 234.048C139.52 234.064 139.424 234.064 139.36 234.048C138.96 234.032 138.656 233.904 138.448 233.664C138.24 233.424 138.128 233.168 138.112 232.896L138.088 231.984C137.528 232.704 136.8 233.264 135.904 233.664C135.008 234.048 134.096 234.24 133.168 234.24C132.368 234.24 131.64 234.072 130.984 233.736C130.344 233.384 129.84 232.92 129.472 232.344C129.12 231.752 128.944 231.104 128.944 230.4ZM137.32 231.36C137.496 231.136 137.632 230.92 137.728 230.712C137.824 230.504 137.872 230.32 137.872 230.16V228.336C137.328 228.128 136.76 227.968 136.168 227.856C135.592 227.744 135.008 227.688 134.416 227.688C133.248 227.688 132.304 227.92 131.584 228.384C130.864 228.848 130.504 229.48 130.504 230.28C130.504 230.744 130.624 231.184 130.864 231.6C131.104 232 131.456 232.336 131.92 232.608C132.384 232.864 132.928 232.992 133.552 232.992C134.336 232.992 135.064 232.84 135.736 232.536C136.424 232.232 136.952 231.84 137.32 231.36ZM149.27 222.936C148.182 222.968 147.222 223.272 146.39 223.848C145.574 224.424 144.998 225.216 144.662 226.224V234H143.03V221.496H144.566V224.496C144.998 223.616 145.566 222.904 146.27 222.36C146.99 221.816 147.75 221.512 148.55 221.448C148.71 221.432 148.846 221.424 148.958 221.424C149.086 221.424 149.19 221.432 149.27 221.448V222.936ZM160.373 234L155.741 227.592L153.077 230.088V234H151.445V216.48H153.077V228.336L160.157 221.52H161.957L156.845 226.632L162.149 234H160.373ZM168.915 234.24C168.019 234.24 167.187 234.072 166.419 233.736C165.651 233.384 164.987 232.912 164.427 232.32C163.867 231.712 163.427 231.016 163.107 230.232C162.803 229.448 162.651 228.608 162.651 227.712C162.651 226.544 162.915 225.472 163.443 224.496C163.987 223.52 164.731 222.744 165.675 222.168C166.619 221.576 167.691 221.28 168.891 221.28C170.123 221.28 171.195 221.576 172.107 222.168C173.035 222.76 173.763 223.544 174.291 224.52C174.819 225.48 175.083 226.536 175.083 227.688C175.083 227.816 175.083 227.944 175.083 228.072C175.083 228.184 175.075 228.272 175.059 228.336H164.355C164.435 229.232 164.683 230.032 165.099 230.736C165.531 231.424 166.083 231.976 166.755 232.392C167.443 232.792 168.187 232.992 168.987 232.992C169.803 232.992 170.571 232.784 171.291 232.368C172.027 231.952 172.539 231.408 172.827 230.736L174.243 231.12C173.987 231.712 173.595 232.248 173.067 232.728C172.539 233.208 171.915 233.584 171.195 233.856C170.491 234.112 169.731 234.24 168.915 234.24ZM164.307 227.16H173.547C173.483 226.248 173.235 225.448 172.803 224.76C172.387 224.072 171.835 223.536 171.147 223.152C170.475 222.752 169.731 222.552 168.915 222.552C168.099 222.552 167.355 222.752 166.683 223.152C166.011 223.536 165.459 224.08 165.027 224.784C164.611 225.472 164.371 226.264 164.307 227.16ZM183.484 233.4C183.356 233.448 183.156 233.536 182.884 233.664C182.612 233.792 182.284 233.904 181.9 234C181.516 234.096 181.1 234.144 180.652 234.144C180.188 234.144 179.748 234.056 179.332 233.88C178.932 233.704 178.612 233.44 178.372 233.088C178.132 232.72 178.012 232.272 178.012 231.744V222.792H176.284V221.496H178.012V217.272H179.644V221.496H182.524V222.792H179.644V231.288C179.676 231.736 179.836 232.072 180.124 232.296C180.428 232.52 180.772 232.632 181.156 232.632C181.604 232.632 182.012 232.56 182.38 232.416C182.748 232.256 182.972 232.144 183.052 232.08L183.484 233.4ZM185.523 234V221.496H187.155V234H185.523ZM185.523 218.88V216.48H187.155V218.88H185.523ZM201.261 234H199.629V227.016C199.629 225.544 199.413 224.472 198.981 223.8C198.549 223.112 197.869 222.768 196.941 222.768C196.301 222.768 195.669 222.928 195.045 223.248C194.421 223.552 193.869 223.976 193.389 224.52C192.925 225.048 192.589 225.656 192.381 226.344V234H190.749V221.496H192.237V224.328C192.573 223.72 193.013 223.192 193.557 222.744C194.101 222.28 194.717 221.92 195.405 221.664C196.093 221.408 196.805 221.28 197.541 221.28C198.229 221.28 198.813 221.408 199.293 221.664C199.773 221.92 200.157 222.288 200.445 222.768C200.733 223.232 200.941 223.8 201.069 224.472C201.197 225.128 201.261 225.864 201.261 226.68V234ZM209.757 234.168C208.909 234.168 208.125 233.992 207.405 233.64C206.685 233.288 206.061 232.816 205.533 232.224C205.021 231.616 204.621 230.928 204.333 230.16C204.045 229.392 203.901 228.6 203.901 227.784C203.901 226.904 204.037 226.08 204.309 225.312C204.597 224.528 204.997 223.832 205.509 223.224C206.037 222.616 206.653 222.144 207.357 221.808C208.061 221.456 208.845 221.28 209.709 221.28C210.781 221.28 211.709 221.552 212.493 222.096C213.293 222.64 213.965 223.312 214.509 224.112V221.496H215.973V234.048C215.973 235.2 215.693 236.168 215.133 236.952C214.589 237.752 213.845 238.352 212.901 238.752C211.973 239.152 210.957 239.352 209.853 239.352C208.429 239.352 207.277 239.096 206.397 238.584C205.517 238.072 204.797 237.384 204.237 236.52L205.245 235.728C205.741 236.512 206.397 237.096 207.213 237.48C208.045 237.864 208.925 238.056 209.853 238.056C210.669 238.056 211.413 237.904 212.085 237.6C212.773 237.312 213.317 236.872 213.717 236.28C214.133 235.688 214.341 234.944 214.341 234.048V231.576C213.861 232.36 213.205 232.992 212.373 233.472C211.541 233.936 210.669 234.168 209.757 234.168ZM210.213 232.8C210.709 232.8 211.181 232.712 211.629 232.536C212.093 232.36 212.517 232.128 212.901 231.84C213.285 231.536 213.605 231.2 213.861 230.832C214.117 230.464 214.277 230.088 214.341 229.704V225.84C214.101 225.232 213.757 224.696 213.309 224.232C212.861 223.752 212.349 223.384 211.773 223.128C211.213 222.856 210.629 222.72 210.021 222.72C209.317 222.72 208.685 222.872 208.125 223.176C207.581 223.464 207.117 223.856 206.733 224.352C206.365 224.832 206.077 225.376 205.869 225.984C205.661 226.592 205.557 227.2 205.557 227.808C205.557 228.48 205.677 229.12 205.917 229.728C206.157 230.32 206.485 230.856 206.901 231.336C207.333 231.8 207.829 232.16 208.389 232.416C208.965 232.672 209.573 232.8 210.213 232.8Z" fill="white"/>
<path d="M125.281 361V343.96H126.961V359.512H136.801V361H125.281ZM138.937 361V348.496H140.569V361H138.937ZM138.937 345.88V343.48H140.569V345.88H138.937ZM148.987 361.24C148.139 361.24 147.363 361.064 146.659 360.712C145.971 360.36 145.379 359.88 144.883 359.272C144.387 358.664 144.003 357.976 143.731 357.208C143.459 356.424 143.323 355.608 143.323 354.76C143.323 353.88 143.475 353.056 143.779 352.288C144.083 351.504 144.499 350.816 145.027 350.224C145.571 349.616 146.203 349.144 146.923 348.808C147.659 348.456 148.443 348.28 149.275 348.28C150.251 348.28 151.147 348.536 151.963 349.048C152.795 349.544 153.443 350.176 153.907 350.944V348.496H155.371V366.112H153.739V358.408C152.507 360.296 150.923 361.24 148.987 361.24ZM149.491 359.8C150.147 359.8 150.739 359.672 151.267 359.416C151.811 359.144 152.283 358.784 152.683 358.336C153.099 357.888 153.451 357.392 153.739 356.848V352.984C153.691 352.552 153.531 352.144 153.259 351.76C152.987 351.36 152.651 351.008 152.251 350.704C151.851 350.384 151.419 350.144 150.955 349.984C150.491 349.808 150.035 349.72 149.587 349.72C148.899 349.72 148.275 349.864 147.715 350.152C147.171 350.44 146.691 350.824 146.275 351.304C145.859 351.784 145.539 352.328 145.315 352.936C145.091 353.544 144.979 354.16 144.979 354.784C144.979 355.68 145.171 356.512 145.555 357.28C145.955 358.048 146.491 358.664 147.163 359.128C147.835 359.576 148.611 359.8 149.491 359.8ZM158.856 355.84V348.496H160.488V355.552C160.488 356.976 160.728 358.04 161.208 358.744C161.704 359.448 162.432 359.8 163.392 359.8C164.032 359.8 164.648 359.664 165.24 359.392C165.848 359.104 166.384 358.704 166.848 358.192C167.312 357.664 167.664 357.056 167.904 356.368V348.496H169.536V359.032C169.536 359.256 169.584 359.424 169.68 359.536C169.776 359.632 169.92 359.688 170.112 359.704V361C169.92 361.016 169.768 361.024 169.656 361.024C169.544 361.04 169.44 361.048 169.344 361.048C169.024 361.016 168.744 360.888 168.504 360.664C168.28 360.44 168.16 360.168 168.144 359.848L168.096 358.168C167.552 359.128 166.808 359.88 165.864 360.424C164.936 360.968 163.928 361.24 162.84 361.24C161.528 361.24 160.536 360.784 159.864 359.872C159.192 358.96 158.856 357.616 158.856 355.84ZM173.226 361V348.496H174.858V361H173.226ZM173.226 345.88V343.48H174.858V345.88H173.226ZM177.612 354.784C177.612 353.6 177.852 352.52 178.332 351.544C178.828 350.552 179.508 349.76 180.372 349.168C181.236 348.576 182.22 348.28 183.324 348.28C184.364 348.28 185.292 348.56 186.108 349.12C186.94 349.664 187.588 350.328 188.052 351.112V343.48H189.684V359.032C189.684 359.256 189.732 359.424 189.828 359.536C189.924 359.632 190.068 359.688 190.26 359.704V361C189.94 361.048 189.692 361.064 189.516 361.048C189.18 361.032 188.884 360.896 188.628 360.64C188.372 360.384 188.244 360.104 188.244 359.8V358.576C187.748 359.392 187.076 360.04 186.228 360.52C185.38 361 184.5 361.24 183.588 361.24C182.724 361.24 181.924 361.064 181.188 360.712C180.468 360.36 179.836 359.88 179.292 359.272C178.764 358.664 178.348 357.976 178.044 357.208C177.756 356.424 177.612 355.616 177.612 354.784ZM188.052 356.704V352.84C187.844 352.264 187.508 351.744 187.044 351.28C186.58 350.8 186.052 350.424 185.46 350.152C184.884 349.864 184.308 349.72 183.732 349.72C183.06 349.72 182.452 349.864 181.908 350.152C181.364 350.424 180.892 350.8 180.492 351.28C180.108 351.76 179.812 352.304 179.604 352.912C179.396 353.52 179.292 354.144 179.292 354.784C179.292 355.456 179.404 356.096 179.628 356.704C179.868 357.312 180.204 357.856 180.636 358.336C181.068 358.8 181.564 359.16 182.124 359.416C182.684 359.672 183.292 359.8 183.948 359.8C184.364 359.8 184.796 359.72 185.244 359.56C185.692 359.4 186.116 359.184 186.516 358.912C186.932 358.624 187.276 358.288 187.548 357.904C187.82 357.52 187.988 357.12 188.052 356.704ZM193.382 361V348.496H195.014V361H193.382ZM193.382 345.88V343.48H195.014V345.88H193.382ZM204.609 360.4C204.481 360.448 204.281 360.536 204.009 360.664C203.737 360.792 203.409 360.904 203.025 361C202.641 361.096 202.225 361.144 201.777 361.144C201.313 361.144 200.873 361.056 200.457 360.88C200.057 360.704 199.737 360.44 199.497 360.088C199.257 359.72 199.137 359.272 199.137 358.744V349.792H197.409V348.496H199.137V344.272H200.769V348.496H203.649V349.792H200.769V358.288C200.801 358.736 200.961 359.072 201.249 359.296C201.553 359.52 201.897 359.632 202.281 359.632C202.729 359.632 203.137 359.56 203.505 359.416C203.873 359.256 204.097 359.144 204.177 359.08L204.609 360.4ZM207.368 364.84C207.592 364.856 207.808 364.864 208.016 364.864C208.224 364.88 208.376 364.872 208.472 364.84C208.664 364.808 208.848 364.696 209.024 364.504C209.2 364.312 209.408 363.944 209.648 363.4C209.888 362.856 210.224 362.056 210.656 361L205.208 348.496H206.936L211.52 359.32L215.744 348.496H217.376L210.896 364.624C210.784 364.928 210.616 365.208 210.392 365.464C210.168 365.736 209.888 365.944 209.552 366.088C209.232 366.248 208.832 366.336 208.352 366.352C208.208 366.368 208.056 366.368 207.896 366.352C207.752 366.352 207.576 366.336 207.368 366.304V364.84Z" fill="white"/>
<path d="M1110.62 124.96H1112.04L1119.12 142H1117.34L1115.14 136.672H1107.48L1105.3 142H1103.5L1110.62 124.96ZM1114.75 135.352L1111.32 126.928L1107.84 135.352H1114.75ZM1121.23 142V129.496H1122.86V142H1121.23ZM1121.23 126.88V124.48H1122.86V126.88H1121.23ZM1132.69 130.936C1131.6 130.968 1130.64 131.272 1129.81 131.848C1129 132.424 1128.42 133.216 1128.08 134.224V142H1126.45V129.496H1127.99V132.496C1128.42 131.616 1128.99 130.904 1129.69 130.36C1130.41 129.816 1131.17 129.512 1131.97 129.448C1132.13 129.432 1132.27 129.424 1132.38 129.424C1132.51 129.424 1132.61 129.432 1132.69 129.448V130.936ZM1133.7 135.784C1133.7 134.6 1133.94 133.52 1134.42 132.544C1134.91 131.552 1135.59 130.76 1136.46 130.168C1137.32 129.576 1138.31 129.28 1139.41 129.28C1140.45 129.28 1141.38 129.56 1142.19 130.12C1143.03 130.664 1143.67 131.328 1144.14 132.112V124.48H1145.77V140.032C1145.77 140.256 1145.82 140.424 1145.91 140.536C1146.01 140.632 1146.15 140.688 1146.35 140.704V142C1146.03 142.048 1145.78 142.064 1145.6 142.048C1145.27 142.032 1144.97 141.896 1144.71 141.64C1144.46 141.384 1144.33 141.104 1144.33 140.8V139.576C1143.83 140.392 1143.16 141.04 1142.31 141.52C1141.47 142 1140.59 142.24 1139.67 142.24C1138.81 142.24 1138.01 142.064 1137.27 141.712C1136.55 141.36 1135.92 140.88 1135.38 140.272C1134.85 139.664 1134.43 138.976 1134.13 138.208C1133.84 137.424 1133.7 136.616 1133.7 135.784ZM1144.14 137.704V133.84C1143.93 133.264 1143.59 132.744 1143.13 132.28C1142.67 131.8 1142.14 131.424 1141.55 131.152C1140.97 130.864 1140.39 130.72 1139.82 130.72C1139.15 130.72 1138.54 130.864 1137.99 131.152C1137.45 131.424 1136.98 131.8 1136.58 132.28C1136.19 132.76 1135.9 133.304 1135.69 133.912C1135.48 134.52 1135.38 135.144 1135.38 135.784C1135.38 136.456 1135.49 137.096 1135.71 137.704C1135.95 138.312 1136.29 138.856 1136.72 139.336C1137.15 139.8 1137.65 140.16 1138.21 140.416C1138.77 140.672 1139.38 140.8 1140.03 140.8C1140.45 140.8 1140.88 140.72 1141.33 140.56C1141.78 140.4 1142.2 140.184 1142.6 139.912C1143.02 139.624 1143.36 139.288 1143.63 138.904C1143.91 138.52 1144.07 138.12 1144.14 137.704ZM1155.71 130.936C1154.62 130.968 1153.66 131.272 1152.83 131.848C1152.01 132.424 1151.44 133.216 1151.1 134.224V142H1149.47V129.496H1151V132.496C1151.44 131.616 1152 130.904 1152.71 130.36C1153.43 129.816 1154.19 129.512 1154.99 129.448C1155.15 129.432 1155.28 129.424 1155.4 129.424C1155.52 129.424 1155.63 129.432 1155.71 129.448V130.936ZM1162.84 142.24C1161.94 142.24 1161.11 142.072 1160.34 141.736C1159.59 141.384 1158.93 140.912 1158.37 140.32C1157.83 139.712 1157.4 139.024 1157.1 138.256C1156.8 137.472 1156.64 136.648 1156.64 135.784C1156.64 134.888 1156.8 134.056 1157.1 133.288C1157.4 132.504 1157.84 131.816 1158.4 131.224C1158.96 130.616 1159.61 130.144 1160.36 129.808C1161.13 129.456 1161.96 129.28 1162.86 129.28C1163.76 129.28 1164.58 129.456 1165.33 129.808C1166.08 130.144 1166.74 130.616 1167.3 131.224C1167.86 131.816 1168.29 132.504 1168.6 133.288C1168.9 134.056 1169.05 134.888 1169.05 135.784C1169.05 136.648 1168.9 137.472 1168.6 138.256C1168.29 139.024 1167.86 139.712 1167.3 140.32C1166.76 140.912 1166.1 141.384 1165.33 141.736C1164.58 142.072 1163.75 142.24 1162.84 142.24ZM1158.3 135.808C1158.3 136.736 1158.5 137.584 1158.9 138.352C1159.32 139.104 1159.87 139.704 1160.56 140.152C1161.24 140.584 1162 140.8 1162.84 140.8C1163.67 140.8 1164.43 140.576 1165.12 140.128C1165.8 139.68 1166.36 139.072 1166.77 138.304C1167.19 137.52 1167.4 136.672 1167.4 135.76C1167.4 134.832 1167.19 133.984 1166.77 133.216C1166.36 132.448 1165.8 131.84 1165.12 131.392C1164.43 130.944 1163.67 130.72 1162.84 130.72C1162 130.72 1161.24 130.952 1160.56 131.416C1159.88 131.88 1159.34 132.496 1158.92 133.264C1158.51 134.016 1158.3 134.864 1158.3 135.808ZM1178.16 142.24C1177.12 142.24 1176.19 141.968 1175.36 141.424C1174.54 140.88 1173.89 140.208 1173.41 139.408V147.112H1171.78V129.496H1173.24V131.92C1173.74 131.136 1174.4 130.504 1175.24 130.024C1176.07 129.528 1176.96 129.28 1177.9 129.28C1178.76 129.28 1179.56 129.464 1180.28 129.832C1181 130.184 1181.62 130.664 1182.15 131.272C1182.68 131.88 1183.08 132.576 1183.37 133.36C1183.68 134.128 1183.83 134.928 1183.83 135.76C1183.83 136.928 1183.59 138.008 1183.11 139C1182.64 139.976 1181.99 140.76 1181.14 141.352C1180.29 141.944 1179.3 142.24 1178.16 142.24ZM1177.71 140.8C1178.4 140.8 1179.01 140.664 1179.56 140.392C1180.1 140.104 1180.56 139.72 1180.95 139.24C1181.35 138.76 1181.65 138.224 1181.86 137.632C1182.07 137.024 1182.17 136.4 1182.17 135.76C1182.17 135.088 1182.05 134.448 1181.81 133.84C1181.59 133.232 1181.26 132.696 1180.83 132.232C1180.4 131.768 1179.9 131.4 1179.34 131.128C1178.78 130.856 1178.17 130.72 1177.52 130.72C1177.1 130.72 1176.67 130.8 1176.22 130.96C1175.77 131.12 1175.34 131.352 1174.92 131.656C1174.52 131.944 1174.19 132.272 1173.92 132.64C1173.64 133.008 1173.48 133.4 1173.41 133.816V137.656C1173.67 138.248 1174.01 138.784 1174.44 139.264C1174.88 139.728 1175.37 140.104 1175.93 140.392C1176.51 140.664 1177.1 140.8 1177.71 140.8Z" fill="white"/>
<path d="M1105.37 217V199.96H1107.05V217H1105.37ZM1121.5 217H1119.87V210.016C1119.87 208.544 1119.66 207.472 1119.22 206.8C1118.79 206.112 1118.11 205.768 1117.18 205.768C1116.54 205.768 1115.91 205.928 1115.29 206.248C1114.66 206.552 1114.11 206.976 1113.63 207.52C1113.17 208.048 1112.83 208.656 1112.62 209.344V217H1110.99V204.496H1112.48V207.328C1112.82 206.72 1113.26 206.192 1113.8 205.744C1114.34 205.28 1114.96 204.92 1115.65 204.664C1116.34 204.408 1117.05 204.28 1117.78 204.28C1118.47 204.28 1119.06 204.408 1119.54 204.664C1120.02 204.92 1120.4 205.288 1120.69 205.768C1120.98 206.232 1121.18 206.8 1121.31 207.472C1121.44 208.128 1121.5 208.864 1121.5 209.68V217ZM1128.45 217L1123.38 204.496H1125.09L1129.36 215.368L1133.65 204.496H1135.26L1130.2 217H1128.45ZM1142.5 217.24C1141.6 217.24 1140.77 217.072 1140 216.736C1139.24 216.384 1138.57 215.912 1138.01 215.32C1137.45 214.712 1137.01 214.016 1136.69 213.232C1136.39 212.448 1136.24 211.608 1136.24 210.712C1136.24 209.544 1136.5 208.472 1137.03 207.496C1137.57 206.52 1138.32 205.744 1139.26 205.168C1140.2 204.576 1141.28 204.28 1142.48 204.28C1143.71 204.28 1144.78 204.576 1145.69 205.168C1146.62 205.76 1147.35 206.544 1147.88 207.52C1148.4 208.48 1148.67 209.536 1148.67 210.688C1148.67 210.816 1148.67 210.944 1148.67 211.072C1148.67 211.184 1148.66 211.272 1148.64 211.336H1137.94C1138.02 212.232 1138.27 213.032 1138.68 213.736C1139.12 214.424 1139.67 214.976 1140.34 215.392C1141.03 215.792 1141.77 215.992 1142.57 215.992C1143.39 215.992 1144.16 215.784 1144.88 215.368C1145.61 214.952 1146.12 214.408 1146.41 213.736L1147.83 214.12C1147.57 214.712 1147.18 215.248 1146.65 215.728C1146.12 216.208 1145.5 216.584 1144.78 216.856C1144.08 217.112 1143.32 217.24 1142.5 217.24ZM1137.89 210.16H1147.13C1147.07 209.248 1146.82 208.448 1146.39 207.76C1145.97 207.072 1145.42 206.536 1144.73 206.152C1144.06 205.752 1143.32 205.552 1142.5 205.552C1141.68 205.552 1140.94 205.752 1140.27 206.152C1139.6 206.536 1139.04 207.08 1138.61 207.784C1138.2 208.472 1137.96 209.264 1137.89 210.16ZM1155.29 217.24C1154.27 217.24 1153.31 217.072 1152.43 216.736C1151.55 216.4 1150.79 215.888 1150.15 215.2L1150.83 214.048C1151.53 214.704 1152.23 215.184 1152.94 215.488C1153.66 215.776 1154.42 215.92 1155.22 215.92C1156.19 215.92 1156.99 215.728 1157.59 215.344C1158.2 214.944 1158.51 214.376 1158.51 213.64C1158.51 213.144 1158.35 212.768 1158.05 212.512C1157.76 212.24 1157.34 212.024 1156.78 211.864C1156.23 211.688 1155.58 211.504 1154.81 211.312C1153.95 211.072 1153.22 210.824 1152.63 210.568C1152.05 210.296 1151.61 209.96 1151.31 209.56C1151.02 209.144 1150.87 208.608 1150.87 207.952C1150.87 207.136 1151.07 206.464 1151.47 205.936C1151.89 205.392 1152.45 204.984 1153.15 204.712C1153.87 204.424 1154.67 204.28 1155.55 204.28C1156.51 204.28 1157.36 204.432 1158.1 204.736C1158.83 205.04 1159.43 205.464 1159.9 206.008L1159.11 207.112C1158.66 206.6 1158.12 206.224 1157.5 205.984C1156.89 205.728 1156.21 205.6 1155.46 205.6C1154.95 205.6 1154.46 205.672 1153.99 205.816C1153.53 205.944 1153.15 206.168 1152.84 206.488C1152.55 206.792 1152.41 207.216 1152.41 207.76C1152.41 208.208 1152.52 208.56 1152.75 208.816C1152.97 209.056 1153.31 209.264 1153.75 209.44C1154.2 209.6 1154.75 209.776 1155.41 209.968C1156.35 210.224 1157.18 210.488 1157.88 210.76C1158.59 211.016 1159.13 211.352 1159.51 211.768C1159.9 212.184 1160.09 212.768 1160.09 213.52C1160.09 214.688 1159.65 215.6 1158.77 216.256C1157.89 216.912 1156.73 217.24 1155.29 217.24ZM1168.79 216.4C1168.66 216.448 1168.46 216.536 1168.19 216.664C1167.92 216.792 1167.59 216.904 1167.2 217C1166.82 217.096 1166.4 217.144 1165.96 217.144C1165.49 217.144 1165.05 217.056 1164.64 216.88C1164.24 216.704 1163.92 216.44 1163.68 216.088C1163.44 215.72 1163.32 215.272 1163.32 214.744V205.792H1161.59V204.496H1163.32V200.272H1164.95V204.496H1167.83V205.792H1164.95V214.288C1164.98 214.736 1165.14 215.072 1165.43 215.296C1165.73 215.52 1166.08 215.632 1166.46 215.632C1166.91 215.632 1167.32 215.56 1167.68 215.416C1168.05 215.256 1168.28 215.144 1168.36 215.08L1168.79 216.4ZM1175.94 217.24C1175.05 217.24 1174.22 217.072 1173.45 216.736C1172.7 216.384 1172.04 215.912 1171.48 215.32C1170.94 214.712 1170.51 214.024 1170.21 213.256C1169.9 212.472 1169.75 211.648 1169.75 210.784C1169.75 209.888 1169.9 209.056 1170.21 208.288C1170.51 207.504 1170.94 206.816 1171.5 206.224C1172.06 205.616 1172.72 205.144 1173.47 204.808C1174.24 204.456 1175.07 204.28 1175.97 204.28C1176.86 204.28 1177.69 204.456 1178.44 204.808C1179.19 205.144 1179.85 205.616 1180.41 206.224C1180.97 206.816 1181.4 207.504 1181.7 208.288C1182.01 209.056 1182.16 209.888 1182.16 210.784C1182.16 211.648 1182.01 212.472 1181.7 213.256C1181.4 214.024 1180.97 214.712 1180.41 215.32C1179.86 215.912 1179.21 216.384 1178.44 216.736C1177.69 217.072 1176.86 217.24 1175.94 217.24ZM1171.41 210.808C1171.41 211.736 1171.61 212.584 1172.01 213.352C1172.42 214.104 1172.98 214.704 1173.66 215.152C1174.35 215.584 1175.11 215.8 1175.94 215.8C1176.78 215.8 1177.54 215.576 1178.22 215.128C1178.91 214.68 1179.46 214.072 1179.88 213.304C1180.3 212.52 1180.5 211.672 1180.5 210.76C1180.5 209.832 1180.3 208.984 1179.88 208.216C1179.46 207.448 1178.91 206.84 1178.22 206.392C1177.54 205.944 1176.78 205.72 1175.94 205.72C1175.11 205.72 1174.35 205.952 1173.66 206.416C1172.99 206.88 1172.45 207.496 1172.03 208.264C1171.62 209.016 1171.41 209.864 1171.41 210.808ZM1191.13 205.936C1190.04 205.968 1189.08 206.272 1188.25 206.848C1187.43 207.424 1186.86 208.216 1186.52 209.224V217H1184.89V204.496H1186.43V207.496C1186.86 206.616 1187.43 205.904 1188.13 205.36C1188.85 204.816 1189.61 204.512 1190.41 204.448C1190.57 204.432 1190.71 204.424 1190.82 204.424C1190.95 204.424 1191.05 204.432 1191.13 204.448V205.936ZM1197.41 217.24C1196.38 217.24 1195.43 217.072 1194.55 216.736C1193.67 216.4 1192.91 215.888 1192.27 215.2L1192.94 214.048C1193.65 214.704 1194.35 215.184 1195.06 215.488C1195.78 215.776 1196.54 215.92 1197.34 215.92C1198.31 215.92 1199.1 215.728 1199.71 215.344C1200.32 214.944 1200.62 214.376 1200.62 213.64C1200.62 213.144 1200.47 212.768 1200.17 212.512C1199.88 212.24 1199.46 212.024 1198.9 211.864C1198.35 211.688 1197.7 211.504 1196.93 211.312C1196.06 211.072 1195.34 210.824 1194.74 210.568C1194.17 210.296 1193.73 209.96 1193.42 209.56C1193.14 209.144 1192.99 208.608 1192.99 207.952C1192.99 207.136 1193.19 206.464 1193.59 205.936C1194.01 205.392 1194.57 204.984 1195.27 204.712C1195.99 204.424 1196.79 204.28 1197.67 204.28C1198.63 204.28 1199.48 204.432 1200.22 204.736C1200.95 205.04 1201.55 205.464 1202.02 206.008L1201.22 207.112C1200.78 206.6 1200.24 206.224 1199.62 205.984C1199.01 205.728 1198.33 205.6 1197.58 205.6C1197.06 205.6 1196.58 205.672 1196.11 205.816C1195.65 205.944 1195.26 206.168 1194.96 206.488C1194.67 206.792 1194.53 207.216 1194.53 207.76C1194.53 208.208 1194.64 208.56 1194.86 208.816C1195.09 209.056 1195.42 209.264 1195.87 209.44C1196.32 209.6 1196.87 209.776 1197.53 209.968C1198.47 210.224 1199.3 210.488 1200 210.76C1200.7 211.016 1201.25 211.352 1201.63 211.768C1202.02 212.184 1202.21 212.768 1202.21 213.52C1202.21 214.688 1201.77 215.6 1200.89 216.256C1200.01 216.912 1198.85 217.24 1197.41 217.24ZM1222.93 217L1214.43 208.048C1213.74 207.312 1213.19 206.688 1212.77 206.176C1212.36 205.648 1212.06 205.176 1211.89 204.76C1211.71 204.328 1211.62 203.904 1211.62 203.488C1211.62 202.784 1211.81 202.152 1212.17 201.592C1212.56 201.032 1213.07 200.584 1213.71 200.248C1214.37 199.912 1215.09 199.744 1215.89 199.744C1216.65 199.744 1217.32 199.888 1217.91 200.176C1218.52 200.448 1219 200.84 1219.35 201.352C1219.7 201.848 1219.88 202.432 1219.88 203.104C1219.88 203.824 1219.67 204.472 1219.25 205.048C1218.85 205.608 1218.33 206.136 1217.67 206.632C1217.03 207.112 1216.32 207.6 1215.53 208.096C1214.88 208.544 1214.27 209 1213.71 209.464C1213.17 209.912 1212.73 210.392 1212.41 210.904C1212.09 211.416 1211.93 212 1211.93 212.656C1211.93 213.36 1212.13 213.96 1212.53 214.456C1212.93 214.936 1213.44 215.304 1214.05 215.56C1214.67 215.8 1215.31 215.92 1215.97 215.92C1216.83 215.92 1217.62 215.728 1218.34 215.344C1219.08 214.944 1219.72 214.4 1220.26 213.712C1220.81 213.008 1221.22 212.208 1221.51 211.312C1221.81 210.416 1221.97 209.464 1221.97 208.456H1223.36C1223.36 209.672 1223.17 210.816 1222.78 211.888C1222.4 212.944 1221.86 213.872 1221.17 214.672C1220.5 215.472 1219.7 216.104 1218.77 216.568C1217.86 217.016 1216.87 217.24 1215.8 217.24C1214.81 217.24 1213.89 217.048 1213.06 216.664C1212.23 216.264 1211.57 215.72 1211.07 215.032C1210.59 214.344 1210.35 213.536 1210.35 212.608C1210.35 211.744 1210.55 210.992 1210.95 210.352C1211.37 209.696 1211.89 209.112 1212.53 208.6C1213.19 208.072 1213.88 207.576 1214.6 207.112C1215.33 206.632 1215.98 206.192 1216.54 205.792C1217.12 205.376 1217.57 204.96 1217.89 204.544C1218.21 204.112 1218.37 203.648 1218.37 203.152C1218.37 202.528 1218.13 202.016 1217.67 201.616C1217.21 201.216 1216.61 201.016 1215.89 201.016C1215.37 201.016 1214.89 201.128 1214.48 201.352C1214.06 201.576 1213.73 201.872 1213.49 202.24C1213.25 202.608 1213.13 203.008 1213.13 203.44C1213.13 203.712 1213.2 204 1213.33 204.304C1213.45 204.592 1213.7 204.96 1214.07 205.408C1214.44 205.84 1214.97 206.416 1215.65 207.136L1225.09 217H1222.93ZM1233.48 217V199.96H1240.54C1241.28 199.96 1241.95 200.112 1242.56 200.416C1243.18 200.72 1243.72 201.136 1244.16 201.664C1244.61 202.176 1244.96 202.752 1245.22 203.392C1245.48 204.016 1245.6 204.656 1245.6 205.312C1245.6 206.24 1245.4 207.12 1244.98 207.952C1244.58 208.768 1244.01 209.432 1243.28 209.944C1242.54 210.456 1241.68 210.712 1240.68 210.712H1235.16V217H1233.48ZM1235.16 209.224H1240.61C1241.28 209.224 1241.87 209.04 1242.36 208.672C1242.86 208.304 1243.24 207.824 1243.52 207.232C1243.79 206.64 1243.92 206 1243.92 205.312C1243.92 204.608 1243.76 203.96 1243.44 203.368C1243.12 202.776 1242.7 202.312 1242.17 201.976C1241.66 201.624 1241.09 201.448 1240.47 201.448H1235.16V209.224ZM1246.93 213.4C1246.93 212.616 1247.15 211.944 1247.6 211.384C1248.05 210.808 1248.66 210.368 1249.45 210.064C1250.25 209.744 1251.17 209.584 1252.21 209.584C1252.82 209.584 1253.45 209.632 1254.1 209.728C1254.76 209.824 1255.34 209.968 1255.86 210.16V209.104C1255.86 208.048 1255.54 207.208 1254.92 206.584C1254.3 205.96 1253.43 205.648 1252.33 205.648C1251.66 205.648 1250.99 205.776 1250.34 206.032C1249.7 206.272 1249.02 206.632 1248.32 207.112L1247.7 205.96C1248.51 205.4 1249.31 204.984 1250.1 204.712C1250.88 204.424 1251.68 204.28 1252.5 204.28C1254.03 204.28 1255.25 204.72 1256.14 205.6C1257.04 206.48 1257.49 207.696 1257.49 209.248V215.032C1257.49 215.256 1257.54 215.424 1257.63 215.536C1257.73 215.632 1257.88 215.688 1258.09 215.704V217C1257.91 217.016 1257.76 217.032 1257.63 217.048C1257.5 217.064 1257.41 217.064 1257.34 217.048C1256.94 217.032 1256.64 216.904 1256.43 216.664C1256.22 216.424 1256.11 216.168 1256.1 215.896L1256.07 214.984C1255.51 215.704 1254.78 216.264 1253.89 216.664C1252.99 217.048 1252.08 217.24 1251.15 217.24C1250.35 217.24 1249.62 217.072 1248.97 216.736C1248.33 216.384 1247.82 215.92 1247.46 215.344C1247.1 214.752 1246.93 214.104 1246.93 213.4ZM1255.3 214.36C1255.48 214.136 1255.62 213.92 1255.71 213.712C1255.81 213.504 1255.86 213.32 1255.86 213.16V211.336C1255.31 211.128 1254.74 210.968 1254.15 210.856C1253.58 210.744 1252.99 210.688 1252.4 210.688C1251.23 210.688 1250.29 210.92 1249.57 211.384C1248.85 211.848 1248.49 212.48 1248.49 213.28C1248.49 213.744 1248.61 214.184 1248.85 214.6C1249.09 215 1249.44 215.336 1249.9 215.608C1250.37 215.864 1250.91 215.992 1251.54 215.992C1252.32 215.992 1253.05 215.84 1253.72 215.536C1254.41 215.232 1254.94 214.84 1255.3 214.36ZM1267.25 205.936C1266.17 205.968 1265.21 206.272 1264.37 206.848C1263.56 207.424 1262.98 208.216 1262.65 209.224V217H1261.01V204.496H1262.55V207.496C1262.98 206.616 1263.55 205.904 1264.25 205.36C1264.97 204.816 1265.73 204.512 1266.53 204.448C1266.69 204.432 1266.83 204.424 1266.94 204.424C1267.07 204.424 1267.17 204.432 1267.25 204.448V205.936ZM1275.43 216.4C1275.3 216.448 1275.1 216.536 1274.83 216.664C1274.56 216.792 1274.23 216.904 1273.84 217C1273.46 217.096 1273.04 217.144 1272.6 217.144C1272.13 217.144 1271.69 217.056 1271.28 216.88C1270.88 216.704 1270.56 216.44 1270.32 216.088C1270.08 215.72 1269.96 215.272 1269.96 214.744V205.792H1268.23V204.496H1269.96V200.272H1271.59V204.496H1274.47V205.792H1271.59V214.288C1271.62 214.736 1271.78 215.072 1272.07 215.296C1272.37 215.52 1272.72 215.632 1273.1 215.632C1273.55 215.632 1273.96 215.56 1274.32 215.416C1274.69 215.256 1274.92 215.144 1275 215.08L1275.43 216.4ZM1287.98 217H1286.35V210.016C1286.35 208.544 1286.13 207.472 1285.7 206.8C1285.27 206.112 1284.59 205.768 1283.66 205.768C1283.02 205.768 1282.39 205.928 1281.76 206.248C1281.14 206.552 1280.59 206.976 1280.11 207.52C1279.64 208.048 1279.31 208.656 1279.1 209.344V217H1277.47V204.496H1278.96V207.328C1279.29 206.72 1279.73 206.192 1280.28 205.744C1280.82 205.28 1281.44 204.92 1282.12 204.664C1282.81 204.408 1283.52 204.28 1284.26 204.28C1284.95 204.28 1285.53 204.408 1286.01 204.664C1286.49 204.92 1286.88 205.288 1287.16 205.768C1287.45 206.232 1287.66 206.8 1287.79 207.472C1287.92 208.128 1287.98 208.864 1287.98 209.68V217ZM1296.86 217.24C1295.96 217.24 1295.13 217.072 1294.36 216.736C1293.6 216.384 1292.93 215.912 1292.37 215.32C1291.81 214.712 1291.37 214.016 1291.05 213.232C1290.75 212.448 1290.6 211.608 1290.6 210.712C1290.6 209.544 1290.86 208.472 1291.39 207.496C1291.93 206.52 1292.68 205.744 1293.62 205.168C1294.56 204.576 1295.64 204.28 1296.84 204.28C1298.07 204.28 1299.14 204.576 1300.05 205.168C1300.98 205.76 1301.71 206.544 1302.24 207.52C1302.76 208.48 1303.03 209.536 1303.03 210.688C1303.03 210.816 1303.03 210.944 1303.03 211.072C1303.03 211.184 1303.02 211.272 1303 211.336H1292.3C1292.38 212.232 1292.63 213.032 1293.04 213.736C1293.48 214.424 1294.03 214.976 1294.7 215.392C1295.39 215.792 1296.13 215.992 1296.93 215.992C1297.75 215.992 1298.52 215.784 1299.24 215.368C1299.97 214.952 1300.48 214.408 1300.77 213.736L1302.19 214.12C1301.93 214.712 1301.54 215.248 1301.01 215.728C1300.48 216.208 1299.86 216.584 1299.14 216.856C1298.44 217.112 1297.68 217.24 1296.86 217.24ZM1292.25 210.16H1301.49C1301.43 209.248 1301.18 208.448 1300.75 207.76C1300.33 207.072 1299.78 206.536 1299.09 206.152C1298.42 205.752 1297.68 205.552 1296.86 205.552C1296.04 205.552 1295.3 205.752 1294.63 206.152C1293.96 206.536 1293.4 207.08 1292.97 207.784C1292.56 208.472 1292.32 209.264 1292.25 210.16ZM1311.79 205.936C1310.7 205.968 1309.74 206.272 1308.91 206.848C1308.09 207.424 1307.51 208.216 1307.18 209.224V217H1305.55V204.496H1307.08V207.496C1307.51 206.616 1308.08 205.904 1308.79 205.36C1309.51 204.816 1310.27 204.512 1311.07 204.448C1311.23 204.432 1311.36 204.424 1311.47 204.424C1311.6 204.424 1311.71 204.432 1311.79 204.448V205.936ZM1318.06 217.24C1317.04 217.24 1316.09 217.072 1315.21 216.736C1314.33 216.4 1313.57 215.888 1312.93 215.2L1313.6 214.048C1314.3 214.704 1315.01 215.184 1315.71 215.488C1316.43 215.776 1317.19 215.92 1317.99 215.92C1318.97 215.92 1319.76 215.728 1320.37 215.344C1320.98 214.944 1321.28 214.376 1321.28 213.64C1321.28 213.144 1321.13 212.768 1320.82 212.512C1320.54 212.24 1320.11 212.024 1319.55 211.864C1319.01 211.688 1318.35 211.504 1317.58 211.312C1316.72 211.072 1315.99 210.824 1315.4 210.568C1314.82 210.296 1314.38 209.96 1314.08 209.56C1313.79 209.144 1313.65 208.608 1313.65 207.952C1313.65 207.136 1313.85 206.464 1314.25 205.936C1314.66 205.392 1315.22 204.984 1315.93 204.712C1316.65 204.424 1317.45 204.28 1318.33 204.28C1319.29 204.28 1320.14 204.432 1320.87 204.736C1321.61 205.04 1322.21 205.464 1322.67 206.008L1321.88 207.112C1321.43 206.6 1320.9 206.224 1320.27 205.984C1319.66 205.728 1318.98 205.6 1318.23 205.6C1317.72 205.6 1317.23 205.672 1316.77 205.816C1316.3 205.944 1315.92 206.168 1315.62 206.488C1315.33 206.792 1315.18 207.216 1315.18 207.76C1315.18 208.208 1315.3 208.56 1315.52 208.816C1315.74 209.056 1316.08 209.264 1316.53 209.44C1316.98 209.6 1317.53 209.776 1318.18 209.968C1319.13 210.224 1319.95 210.488 1320.66 210.76C1321.36 211.016 1321.9 211.352 1322.29 211.768C1322.67 212.184 1322.86 212.768 1322.86 213.52C1322.86 214.688 1322.42 215.6 1321.54 216.256C1320.66 216.912 1319.5 217.24 1318.06 217.24Z" fill="white"/>
<path d="M1105.57 306V288.96H1112.63C1113.36 288.96 1114.03 289.112 1114.64 289.416C1115.27 289.72 1115.8 290.136 1116.25 290.664C1116.7 291.176 1117.05 291.752 1117.31 292.392C1117.56 293.016 1117.69 293.656 1117.69 294.312C1117.69 295.24 1117.48 296.12 1117.07 296.952C1116.67 297.768 1116.1 298.432 1115.36 298.944C1114.63 299.456 1113.76 299.712 1112.77 299.712H1107.25V306H1105.57ZM1107.25 298.224H1112.7C1113.37 298.224 1113.95 298.04 1114.45 297.672C1114.95 297.304 1115.33 296.824 1115.6 296.232C1115.87 295.64 1116.01 295 1116.01 294.312C1116.01 293.608 1115.85 292.96 1115.53 292.368C1115.21 291.776 1114.79 291.312 1114.26 290.976C1113.75 290.624 1113.18 290.448 1112.55 290.448H1107.25V298.224ZM1120.04 300.84V293.496H1121.68V300.552C1121.68 301.976 1121.92 303.04 1122.4 303.744C1122.89 304.448 1123.62 304.8 1124.58 304.8C1125.22 304.8 1125.84 304.664 1126.43 304.392C1127.04 304.104 1127.57 303.704 1128.04 303.192C1128.5 302.664 1128.85 302.056 1129.09 301.368V293.496H1130.72V304.032C1130.72 304.256 1130.77 304.424 1130.87 304.536C1130.96 304.632 1131.11 304.688 1131.3 304.704V306C1131.11 306.016 1130.96 306.024 1130.84 306.024C1130.73 306.04 1130.63 306.048 1130.53 306.048C1130.21 306.016 1129.93 305.888 1129.69 305.664C1129.47 305.44 1129.35 305.168 1129.33 304.848L1129.28 303.168C1128.74 304.128 1128 304.88 1127.05 305.424C1126.12 305.968 1125.12 306.24 1124.03 306.24C1122.72 306.24 1121.72 305.784 1121.05 304.872C1120.38 303.96 1120.04 302.616 1120.04 300.84ZM1140.53 306.24C1139.56 306.24 1138.65 305.992 1137.82 305.496C1136.99 304.984 1136.34 304.344 1135.88 303.576V306H1134.41V288.48H1136.05V296.112C1136.61 295.264 1137.28 294.584 1138.06 294.072C1138.85 293.544 1139.76 293.28 1140.8 293.28C1141.68 293.28 1142.46 293.464 1143.15 293.832C1143.85 294.2 1144.45 294.696 1144.95 295.32C1145.45 295.928 1145.82 296.624 1146.08 297.408C1146.33 298.176 1146.46 298.968 1146.46 299.784C1146.46 300.664 1146.31 301.488 1146.01 302.256C1145.72 303.024 1145.3 303.712 1144.76 304.32C1144.21 304.912 1143.58 305.384 1142.86 305.736C1142.16 306.072 1141.38 306.24 1140.53 306.24ZM1140.15 304.8C1140.82 304.8 1141.45 304.664 1142.02 304.392C1142.6 304.12 1143.09 303.744 1143.51 303.264C1143.93 302.784 1144.25 302.248 1144.47 301.656C1144.69 301.048 1144.81 300.424 1144.81 299.784C1144.81 298.904 1144.61 298.08 1144.23 297.312C1143.86 296.528 1143.34 295.904 1142.67 295.44C1142.01 294.96 1141.24 294.72 1140.34 294.72C1139.7 294.72 1139.1 294.864 1138.54 295.152C1138 295.44 1137.51 295.824 1137.08 296.304C1136.66 296.768 1136.32 297.28 1136.05 297.84V301.728C1136.11 302.16 1136.28 302.568 1136.55 302.952C1136.82 303.32 1137.16 303.64 1137.56 303.912C1137.97 304.184 1138.41 304.4 1138.85 304.56C1139.3 304.72 1139.73 304.8 1140.15 304.8ZM1149.3 288.48H1150.93V303.168C1150.93 303.792 1151.04 304.2 1151.27 304.392C1151.49 304.584 1151.76 304.68 1152.08 304.68C1152.37 304.68 1152.66 304.648 1152.95 304.584C1153.23 304.52 1153.48 304.456 1153.69 304.392L1153.98 305.712C1153.67 305.84 1153.3 305.944 1152.85 306.024C1152.42 306.104 1152.04 306.144 1151.72 306.144C1150.99 306.144 1150.39 305.928 1149.95 305.496C1149.51 305.064 1149.3 304.472 1149.3 303.72V288.48ZM1155.76 306V293.496H1157.4V306H1155.76ZM1155.76 290.88V288.48H1157.4V290.88H1155.76ZM1166.42 306.24C1165.5 306.24 1164.66 306.072 1163.9 305.736C1163.14 305.384 1162.48 304.904 1161.9 304.296C1161.34 303.688 1160.9 302.992 1160.58 302.208C1160.28 301.424 1160.13 300.592 1160.13 299.712C1160.13 298.528 1160.39 297.448 1160.92 296.472C1161.45 295.496 1162.18 294.72 1163.13 294.144C1164.07 293.568 1165.16 293.28 1166.39 293.28C1167.56 293.28 1168.59 293.552 1169.49 294.096C1170.38 294.624 1171.05 295.344 1171.48 296.256L1169.9 296.76C1169.54 296.12 1169.05 295.624 1168.41 295.272C1167.78 294.904 1167.09 294.72 1166.32 294.72C1165.49 294.72 1164.73 294.936 1164.04 295.368C1163.35 295.8 1162.8 296.392 1162.38 297.144C1161.98 297.896 1161.78 298.752 1161.78 299.712C1161.78 300.656 1161.99 301.512 1162.41 302.28C1162.82 303.048 1163.38 303.664 1164.06 304.128C1164.75 304.576 1165.51 304.8 1166.34 304.8C1166.89 304.8 1167.41 304.704 1167.9 304.512C1168.42 304.32 1168.86 304.064 1169.22 303.744C1169.61 303.408 1169.86 303.048 1169.99 302.664L1171.6 303.144C1171.38 303.736 1171 304.272 1170.47 304.752C1169.96 305.216 1169.35 305.584 1168.65 305.856C1167.96 306.112 1167.22 306.24 1166.42 306.24ZM1192.18 306L1183.69 297.048C1183 296.312 1182.45 295.688 1182.03 295.176C1181.62 294.648 1181.32 294.176 1181.14 293.76C1180.97 293.328 1180.88 292.904 1180.88 292.488C1180.88 291.784 1181.06 291.152 1181.43 290.592C1181.82 290.032 1182.33 289.584 1182.97 289.248C1183.62 288.912 1184.35 288.744 1185.15 288.744C1185.9 288.744 1186.58 288.888 1187.17 289.176C1187.78 289.448 1188.26 289.84 1188.61 290.352C1188.96 290.848 1189.14 291.432 1189.14 292.104C1189.14 292.824 1188.93 293.472 1188.51 294.048C1188.11 294.608 1187.58 295.136 1186.93 295.632C1186.29 296.112 1185.58 296.6 1184.79 297.096C1184.14 297.544 1183.53 298 1182.97 298.464C1182.42 298.912 1181.99 299.392 1181.67 299.904C1181.35 300.416 1181.19 301 1181.19 301.656C1181.19 302.36 1181.39 302.96 1181.79 303.456C1182.19 303.936 1182.7 304.304 1183.3 304.56C1183.93 304.8 1184.57 304.92 1185.22 304.92C1186.09 304.92 1186.88 304.728 1187.6 304.344C1188.34 303.944 1188.98 303.4 1189.52 302.712C1190.06 302.008 1190.48 301.208 1190.77 300.312C1191.07 299.416 1191.22 298.464 1191.22 297.456H1192.62C1192.62 298.672 1192.42 299.816 1192.04 300.888C1191.66 301.944 1191.12 302.872 1190.43 303.672C1189.76 304.472 1188.96 305.104 1188.03 305.568C1187.12 306.016 1186.13 306.24 1185.06 306.24C1184.06 306.24 1183.15 306.048 1182.32 305.664C1181.49 305.264 1180.82 304.72 1180.33 304.032C1179.85 303.344 1179.61 302.536 1179.61 301.608C1179.61 300.744 1179.81 299.992 1180.21 299.352C1180.62 298.696 1181.15 298.112 1181.79 297.6C1182.45 297.072 1183.14 296.576 1183.86 296.112C1184.59 295.632 1185.24 295.192 1185.8 294.792C1186.38 294.376 1186.82 293.96 1187.14 293.544C1187.46 293.112 1187.62 292.648 1187.62 292.152C1187.62 291.528 1187.39 291.016 1186.93 290.616C1186.46 290.216 1185.87 290.016 1185.15 290.016C1184.62 290.016 1184.15 290.128 1183.74 290.352C1183.32 290.576 1182.99 290.872 1182.75 291.24C1182.51 291.608 1182.39 292.008 1182.39 292.44C1182.39 292.712 1182.46 293 1182.58 293.304C1182.71 293.592 1182.96 293.96 1183.33 294.408C1183.7 294.84 1184.22 295.416 1184.91 296.136L1194.34 306H1192.18ZM1202.74 306V288.96H1209.8C1210.53 288.96 1211.21 289.112 1211.81 289.416C1212.44 289.72 1212.97 290.136 1213.42 290.664C1213.87 291.176 1214.22 291.752 1214.48 292.392C1214.73 293.016 1214.86 293.656 1214.86 294.312C1214.86 295.24 1214.65 296.12 1214.24 296.952C1213.84 297.768 1213.27 298.432 1212.53 298.944C1211.8 299.456 1210.93 299.712 1209.94 299.712H1204.42V306H1202.74ZM1204.42 298.224H1209.87C1210.54 298.224 1211.13 298.04 1211.62 297.672C1212.12 297.304 1212.5 296.824 1212.77 296.232C1213.05 295.64 1213.18 295 1213.18 294.312C1213.18 293.608 1213.02 292.96 1212.7 292.368C1212.38 291.776 1211.96 291.312 1211.43 290.976C1210.92 290.624 1210.35 290.448 1209.73 290.448H1204.42V298.224ZM1223.58 294.936C1222.49 294.968 1221.53 295.272 1220.7 295.848C1219.88 296.424 1219.3 297.216 1218.97 298.224V306H1217.34V293.496H1218.87V296.496C1219.3 295.616 1219.87 294.904 1220.58 294.36C1221.3 293.816 1222.06 293.512 1222.86 293.448C1223.02 293.432 1223.15 293.424 1223.26 293.424C1223.39 293.424 1223.5 293.432 1223.58 293.448V294.936ZM1225.75 306V293.496H1227.38V306H1225.75ZM1225.75 290.88V288.48H1227.38V290.88H1225.75ZM1234.7 306L1229.63 293.496H1231.34L1235.61 304.368L1239.9 293.496H1241.51L1236.45 306H1234.7ZM1242.46 302.4C1242.46 301.616 1242.68 300.944 1243.13 300.384C1243.58 299.808 1244.2 299.368 1244.98 299.064C1245.78 298.744 1246.7 298.584 1247.74 298.584C1248.35 298.584 1248.98 298.632 1249.64 298.728C1250.29 298.824 1250.88 298.968 1251.39 299.16V298.104C1251.39 297.048 1251.08 296.208 1250.45 295.584C1249.83 294.96 1248.96 294.648 1247.86 294.648C1247.19 294.648 1246.52 294.776 1245.87 295.032C1245.23 295.272 1244.56 295.632 1243.85 296.112L1243.23 294.96C1244.04 294.4 1244.84 293.984 1245.63 293.712C1246.41 293.424 1247.21 293.28 1248.03 293.28C1249.56 293.28 1250.78 293.72 1251.68 294.6C1252.57 295.48 1253.02 296.696 1253.02 298.248V304.032C1253.02 304.256 1253.07 304.424 1253.16 304.536C1253.26 304.632 1253.41 304.688 1253.62 304.704V306C1253.44 306.016 1253.29 306.032 1253.16 306.048C1253.04 306.064 1252.94 306.064 1252.88 306.048C1252.48 306.032 1252.17 305.904 1251.96 305.664C1251.76 305.424 1251.64 305.168 1251.63 304.896L1251.6 303.984C1251.04 304.704 1250.32 305.264 1249.42 305.664C1248.52 306.048 1247.61 306.24 1246.68 306.24C1245.88 306.24 1245.16 306.072 1244.5 305.736C1243.86 305.384 1243.36 304.92 1242.99 304.344C1242.64 303.752 1242.46 303.104 1242.46 302.4ZM1250.84 303.36C1251.01 303.136 1251.15 302.92 1251.24 302.712C1251.34 302.504 1251.39 302.32 1251.39 302.16V300.336C1250.84 300.128 1250.28 299.968 1249.68 299.856C1249.11 299.744 1248.52 299.688 1247.93 299.688C1246.76 299.688 1245.82 299.92 1245.1 300.384C1244.38 300.848 1244.02 301.48 1244.02 302.28C1244.02 302.744 1244.14 303.184 1244.38 303.6C1244.62 304 1244.97 304.336 1245.44 304.608C1245.9 304.864 1246.44 304.992 1247.07 304.992C1247.85 304.992 1248.58 304.84 1249.25 304.536C1249.94 304.232 1250.47 303.84 1250.84 303.36ZM1262.45 305.4C1262.32 305.448 1262.12 305.536 1261.85 305.664C1261.58 305.792 1261.25 305.904 1260.87 306C1260.48 306.096 1260.07 306.144 1259.62 306.144C1259.16 306.144 1258.72 306.056 1258.3 305.88C1257.9 305.704 1257.58 305.44 1257.34 305.088C1257.1 304.72 1256.98 304.272 1256.98 303.744V294.792H1255.25V293.496H1256.98V289.272H1258.61V293.496H1261.49V294.792H1258.61V303.288C1258.64 303.736 1258.8 304.072 1259.09 304.296C1259.4 304.52 1259.74 304.632 1260.12 304.632C1260.57 304.632 1260.98 304.56 1261.35 304.416C1261.72 304.256 1261.94 304.144 1262.02 304.08L1262.45 305.4ZM1269.68 306.24C1268.78 306.24 1267.95 306.072 1267.18 305.736C1266.42 305.384 1265.75 304.912 1265.19 304.32C1264.63 303.712 1264.19 303.016 1263.87 302.232C1263.57 301.448 1263.42 300.608 1263.42 299.712C1263.42 298.544 1263.68 297.472 1264.21 296.496C1264.75 295.52 1265.5 294.744 1266.44 294.168C1267.38 293.576 1268.46 293.28 1269.66 293.28C1270.89 293.28 1271.96 293.576 1272.87 294.168C1273.8 294.76 1274.53 295.544 1275.06 296.52C1275.58 297.48 1275.85 298.536 1275.85 299.688C1275.85 299.816 1275.85 299.944 1275.85 300.072C1275.85 300.184 1275.84 300.272 1275.82 300.336H1265.12C1265.2 301.232 1265.45 302.032 1265.86 302.736C1266.3 303.424 1266.85 303.976 1267.52 304.392C1268.21 304.792 1268.95 304.992 1269.75 304.992C1270.57 304.992 1271.34 304.784 1272.06 304.368C1272.79 303.952 1273.3 303.408 1273.59 302.736L1275.01 303.12C1274.75 303.712 1274.36 304.248 1273.83 304.728C1273.3 305.208 1272.68 305.584 1271.96 305.856C1271.26 306.112 1270.5 306.24 1269.68 306.24ZM1265.07 299.16H1274.31C1274.25 298.248 1274 297.448 1273.57 296.76C1273.15 296.072 1272.6 295.536 1271.91 295.152C1271.24 294.752 1270.5 294.552 1269.68 294.552C1268.86 294.552 1268.12 294.752 1267.45 295.152C1266.78 295.536 1266.22 296.08 1265.79 296.784C1265.38 297.472 1265.14 298.264 1265.07 299.16ZM1172.15 320.152C1171.91 319.88 1171.63 319.64 1171.31 319.432C1170.99 319.208 1170.63 319.016 1170.23 318.856C1169.83 318.696 1169.4 318.568 1168.94 318.472C1168.49 318.376 1168.01 318.328 1167.5 318.328C1166.01 318.328 1164.91 318.616 1164.21 319.192C1163.52 319.752 1163.18 320.52 1163.18 321.496C1163.18 322.168 1163.34 322.696 1163.66 323.08C1163.99 323.464 1164.51 323.776 1165.22 324.016C1165.92 324.256 1166.82 324.504 1167.91 324.76C1169.12 325.016 1170.17 325.32 1171.05 325.672C1171.93 326.024 1172.61 326.504 1173.09 327.112C1173.57 327.704 1173.81 328.512 1173.81 329.536C1173.81 330.32 1173.66 331 1173.35 331.576C1173.05 332.152 1172.63 332.632 1172.08 333.016C1171.54 333.4 1170.89 333.688 1170.14 333.88C1169.39 334.056 1168.56 334.144 1167.67 334.144C1166.79 334.144 1165.94 334.056 1165.12 333.88C1164.32 333.688 1163.56 333.416 1162.84 333.064C1162.12 332.696 1161.45 332.232 1160.83 331.672L1161.67 330.304C1161.97 330.624 1162.33 330.928 1162.75 331.216C1163.18 331.488 1163.65 331.736 1164.16 331.96C1164.69 332.184 1165.25 332.36 1165.84 332.488C1166.45 332.6 1167.07 332.656 1167.71 332.656C1169.07 332.656 1170.13 332.408 1170.88 331.912C1171.65 331.416 1172.03 330.68 1172.03 329.704C1172.03 329 1171.84 328.44 1171.46 328.024C1171.07 327.592 1170.5 327.24 1169.73 326.968C1168.96 326.696 1168.02 326.432 1166.9 326.176C1165.71 325.904 1164.71 325.6 1163.9 325.264C1163.08 324.928 1162.47 324.488 1162.05 323.944C1161.65 323.384 1161.45 322.648 1161.45 321.736C1161.45 320.68 1161.71 319.792 1162.22 319.072C1162.75 318.336 1163.47 317.784 1164.38 317.416C1165.29 317.032 1166.34 316.84 1167.52 316.84C1168.27 316.84 1168.97 316.92 1169.61 317.08C1170.27 317.224 1170.87 317.44 1171.41 317.728C1171.97 318.016 1172.49 318.376 1172.97 318.808L1172.15 320.152ZM1175.43 330.4C1175.43 329.616 1175.65 328.944 1176.1 328.384C1176.55 327.808 1177.16 327.368 1177.95 327.064C1178.75 326.744 1179.67 326.584 1180.71 326.584C1181.32 326.584 1181.95 326.632 1182.6 326.728C1183.26 326.824 1183.84 326.968 1184.36 327.16V326.104C1184.36 325.048 1184.04 324.208 1183.42 323.584C1182.8 322.96 1181.93 322.648 1180.83 322.648C1180.16 322.648 1179.49 322.776 1178.84 323.032C1178.2 323.272 1177.52 323.632 1176.82 324.112L1176.2 322.96C1177.01 322.4 1177.81 321.984 1178.6 321.712C1179.38 321.424 1180.18 321.28 1181 321.28C1182.53 321.28 1183.75 321.72 1184.64 322.6C1185.54 323.48 1185.99 324.696 1185.99 326.248V332.032C1185.99 332.256 1186.04 332.424 1186.13 332.536C1186.23 332.632 1186.38 332.688 1186.59 332.704V334C1186.41 334.016 1186.26 334.032 1186.13 334.048C1186 334.064 1185.91 334.064 1185.84 334.048C1185.44 334.032 1185.14 333.904 1184.93 333.664C1184.72 333.424 1184.61 333.168 1184.6 332.896L1184.57 331.984C1184.01 332.704 1183.28 333.264 1182.39 333.664C1181.49 334.048 1180.58 334.24 1179.65 334.24C1178.85 334.24 1178.12 334.072 1177.47 333.736C1176.83 333.384 1176.32 332.92 1175.96 332.344C1175.6 331.752 1175.43 331.104 1175.43 330.4ZM1183.8 331.36C1183.98 331.136 1184.12 330.92 1184.21 330.712C1184.31 330.504 1184.36 330.32 1184.36 330.16V328.336C1183.81 328.128 1183.24 327.968 1182.65 327.856C1182.08 327.744 1181.49 327.688 1180.9 327.688C1179.73 327.688 1178.79 327.92 1178.07 328.384C1177.35 328.848 1176.99 329.48 1176.99 330.28C1176.99 330.744 1177.11 331.184 1177.35 331.6C1177.59 332 1177.94 332.336 1178.4 332.608C1178.87 332.864 1179.41 332.992 1180.04 332.992C1180.82 332.992 1181.55 332.84 1182.22 332.536C1182.91 332.232 1183.44 331.84 1183.8 331.36ZM1189.59 316.48H1191.22V331.168C1191.22 331.792 1191.33 332.2 1191.55 332.392C1191.78 332.584 1192.05 332.68 1192.37 332.68C1192.66 332.68 1192.95 332.648 1193.23 332.584C1193.52 332.52 1193.77 332.456 1193.98 332.392L1194.27 333.712C1193.96 333.84 1193.59 333.944 1193.14 334.024C1192.71 334.104 1192.33 334.144 1192.01 334.144C1191.27 334.144 1190.68 333.928 1190.23 333.496C1189.8 333.064 1189.59 332.472 1189.59 331.72V316.48ZM1201.45 334.24C1200.56 334.24 1199.73 334.072 1198.96 333.736C1198.19 333.384 1197.53 332.912 1196.97 332.32C1196.41 331.712 1195.97 331.016 1195.65 330.232C1195.34 329.448 1195.19 328.608 1195.19 327.712C1195.19 326.544 1195.45 325.472 1195.98 324.496C1196.53 323.52 1197.27 322.744 1198.21 322.168C1199.16 321.576 1200.23 321.28 1201.43 321.28C1202.66 321.28 1203.73 321.576 1204.65 322.168C1205.57 322.76 1206.3 323.544 1206.83 324.52C1207.36 325.48 1207.62 326.536 1207.62 327.688C1207.62 327.816 1207.62 327.944 1207.62 328.072C1207.62 328.184 1207.61 328.272 1207.6 328.336H1196.89C1196.97 329.232 1197.22 330.032 1197.64 330.736C1198.07 331.424 1198.62 331.976 1199.29 332.392C1199.98 332.792 1200.73 332.992 1201.53 332.992C1202.34 332.992 1203.11 332.784 1203.83 332.368C1204.57 331.952 1205.08 331.408 1205.37 330.736L1206.78 331.12C1206.53 331.712 1206.13 332.248 1205.61 332.728C1205.08 333.208 1204.45 333.584 1203.73 333.856C1203.03 334.112 1202.27 334.24 1201.45 334.24ZM1196.85 327.16H1206.09C1206.02 326.248 1205.77 325.448 1205.34 324.76C1204.93 324.072 1204.37 323.536 1203.69 323.152C1203.01 322.752 1202.27 322.552 1201.45 322.552C1200.64 322.552 1199.89 322.752 1199.22 323.152C1198.55 323.536 1198 324.08 1197.57 324.784C1197.15 325.472 1196.91 326.264 1196.85 327.16ZM1214.24 334.24C1213.22 334.24 1212.27 334.072 1211.39 333.736C1210.51 333.4 1209.75 332.888 1209.11 332.2L1209.78 331.048C1210.48 331.704 1211.19 332.184 1211.89 332.488C1212.61 332.776 1213.37 332.92 1214.17 332.92C1215.15 332.92 1215.94 332.728 1216.55 332.344C1217.16 331.944 1217.46 331.376 1217.46 330.64C1217.46 330.144 1217.31 329.768 1217 329.512C1216.72 329.24 1216.29 329.024 1215.73 328.864C1215.19 328.688 1214.53 328.504 1213.76 328.312C1212.9 328.072 1212.17 327.824 1211.58 327.568C1211 327.296 1210.56 326.96 1210.26 326.56C1209.97 326.144 1209.83 325.608 1209.83 324.952C1209.83 324.136 1210.03 323.464 1210.43 322.936C1210.84 322.392 1211.4 321.984 1212.11 321.712C1212.83 321.424 1213.63 321.28 1214.51 321.28C1215.47 321.28 1216.32 321.432 1217.05 321.736C1217.79 322.04 1218.39 322.464 1218.85 323.008L1218.06 324.112C1217.61 323.6 1217.08 323.224 1216.45 322.984C1215.84 322.728 1215.16 322.6 1214.41 322.6C1213.9 322.6 1213.41 322.672 1212.95 322.816C1212.48 322.944 1212.1 323.168 1211.8 323.488C1211.51 323.792 1211.36 324.216 1211.36 324.76C1211.36 325.208 1211.48 325.56 1211.7 325.816C1211.92 326.056 1212.26 326.264 1212.71 326.44C1213.16 326.6 1213.71 326.776 1214.36 326.968C1215.31 327.224 1216.13 327.488 1216.84 327.76C1217.54 328.016 1218.08 328.352 1218.47 328.768C1218.85 329.184 1219.04 329.768 1219.04 330.52C1219.04 331.688 1218.6 332.6 1217.72 333.256C1216.84 333.912 1215.68 334.24 1214.24 334.24Z" fill="white"/>
<path d="M1104.29 13.36C1104.29 12.32 1104.47 11.304 1104.82 10.312C1105.19 9.304 1105.71 8.392 1106.4 7.576C1107.09 6.744 1107.94 6.088 1108.95 5.608C1109.95 5.112 1111.1 4.864 1112.38 4.864C1113.9 4.864 1115.19 5.216 1116.27 5.92C1117.35 6.608 1118.15 7.496 1118.67 8.584L1117.35 9.4C1116.98 8.648 1116.51 8.056 1115.95 7.624C1115.39 7.176 1114.79 6.856 1114.15 6.664C1113.53 6.472 1112.91 6.376 1112.28 6.376C1111.26 6.376 1110.35 6.584 1109.57 7C1108.79 7.4 1108.12 7.944 1107.58 8.632C1107.05 9.304 1106.65 10.064 1106.38 10.912C1106.11 11.744 1105.97 12.592 1105.97 13.456C1105.97 14.4 1106.13 15.304 1106.45 16.168C1106.77 17.032 1107.22 17.8 1107.79 18.472C1108.37 19.128 1109.04 19.656 1109.81 20.056C1110.59 20.44 1111.44 20.632 1112.35 20.632C1112.99 20.632 1113.65 20.52 1114.32 20.296C1114.99 20.072 1115.62 19.728 1116.19 19.264C1116.79 18.8 1117.26 18.2 1117.61 17.464L1119 18.184C1118.65 19.032 1118.11 19.752 1117.37 20.344C1116.63 20.936 1115.81 21.384 1114.9 21.688C1114 21.992 1113.12 22.144 1112.26 22.144C1111.09 22.144 1110.02 21.896 1109.04 21.4C1108.07 20.888 1107.22 20.216 1106.5 19.384C1105.79 18.536 1105.25 17.592 1104.87 16.552C1104.48 15.496 1104.29 14.432 1104.29 13.36ZM1126.86 22.24C1125.97 22.24 1125.13 22.072 1124.37 21.736C1123.61 21.384 1122.96 20.912 1122.4 20.32C1121.85 19.712 1121.43 19.024 1121.13 18.256C1120.82 17.472 1120.67 16.648 1120.67 15.784C1120.67 14.888 1120.82 14.056 1121.13 13.288C1121.43 12.504 1121.86 11.816 1122.42 11.224C1122.98 10.616 1123.64 10.144 1124.39 9.808C1125.16 9.456 1125.99 9.28 1126.89 9.28C1127.78 9.28 1128.61 9.456 1129.36 9.808C1130.11 10.144 1130.77 10.616 1131.33 11.224C1131.89 11.816 1132.32 12.504 1132.62 13.288C1132.93 14.056 1133.08 14.888 1133.08 15.784C1133.08 16.648 1132.93 17.472 1132.62 18.256C1132.32 19.024 1131.89 19.712 1131.33 20.32C1130.78 20.912 1130.13 21.384 1129.36 21.736C1128.61 22.072 1127.77 22.24 1126.86 22.24ZM1122.33 15.808C1122.33 16.736 1122.53 17.584 1122.93 18.352C1123.34 19.104 1123.89 19.704 1124.58 20.152C1125.27 20.584 1126.03 20.8 1126.86 20.8C1127.69 20.8 1128.45 20.576 1129.14 20.128C1129.83 19.68 1130.38 19.072 1130.8 18.304C1131.21 17.52 1131.42 16.672 1131.42 15.76C1131.42 14.832 1131.21 13.984 1130.8 13.216C1130.38 12.448 1129.83 11.84 1129.14 11.392C1128.45 10.944 1127.69 10.72 1126.86 10.72C1126.03 10.72 1125.27 10.952 1124.58 11.416C1123.91 11.88 1123.37 12.496 1122.95 13.264C1122.53 14.016 1122.33 14.864 1122.33 15.808ZM1142.05 10.936C1140.96 10.968 1140 11.272 1139.17 11.848C1138.35 12.424 1137.78 13.216 1137.44 14.224V22H1135.81V9.496H1137.34V12.496C1137.78 11.616 1138.34 10.904 1139.05 10.36C1139.77 9.816 1140.53 9.512 1141.33 9.448C1141.49 9.432 1141.62 9.424 1141.74 9.424C1141.86 9.424 1141.97 9.432 1142.05 9.448V10.936ZM1149.25 22.24C1148.35 22.24 1147.52 22.072 1146.75 21.736C1145.98 21.384 1145.32 20.912 1144.76 20.32C1144.2 19.712 1143.76 19.016 1143.44 18.232C1143.13 17.448 1142.98 16.608 1142.98 15.712C1142.98 14.544 1143.25 13.472 1143.77 12.496C1144.32 11.52 1145.06 10.744 1146.01 10.168C1146.95 9.576 1148.02 9.28 1149.22 9.28C1150.45 9.28 1151.53 9.576 1152.44 10.168C1153.37 10.76 1154.09 11.544 1154.62 12.52C1155.15 13.48 1155.41 14.536 1155.41 15.688C1155.41 15.816 1155.41 15.944 1155.41 16.072C1155.41 16.184 1155.41 16.272 1155.39 16.336H1144.69C1144.77 17.232 1145.01 18.032 1145.43 18.736C1145.86 19.424 1146.41 19.976 1147.09 20.392C1147.77 20.792 1148.52 20.992 1149.32 20.992C1150.13 20.992 1150.9 20.784 1151.62 20.368C1152.36 19.952 1152.87 19.408 1153.16 18.736L1154.57 19.12C1154.32 19.712 1153.93 20.248 1153.4 20.728C1152.87 21.208 1152.25 21.584 1151.53 21.856C1150.82 22.112 1150.06 22.24 1149.25 22.24ZM1144.64 15.16H1153.88C1153.81 14.248 1153.57 13.448 1153.13 12.76C1152.72 12.072 1152.17 11.536 1151.48 11.152C1150.81 10.752 1150.06 10.552 1149.25 10.552C1148.43 10.552 1147.69 10.752 1147.01 11.152C1146.34 11.536 1145.79 12.08 1145.36 12.784C1144.94 13.472 1144.7 14.264 1144.64 15.16ZM1175.78 6.448H1169.71V22H1168.03V6.448H1161.95V4.96H1175.78V6.448ZM1180.7 22.24C1179.8 22.24 1178.97 22.072 1178.2 21.736C1177.44 21.384 1176.77 20.912 1176.21 20.32C1175.65 19.712 1175.21 19.016 1174.89 18.232C1174.59 17.448 1174.44 16.608 1174.44 15.712C1174.44 14.544 1174.7 13.472 1175.23 12.496C1175.77 11.52 1176.52 10.744 1177.46 10.168C1178.4 9.576 1179.48 9.28 1180.68 9.28C1181.91 9.28 1182.98 9.576 1183.89 10.168C1184.82 10.76 1185.55 11.544 1186.08 12.52C1186.6 13.48 1186.87 14.536 1186.87 15.688C1186.87 15.816 1186.87 15.944 1186.87 16.072C1186.87 16.184 1186.86 16.272 1186.84 16.336H1176.14C1176.22 17.232 1176.47 18.032 1176.88 18.736C1177.32 19.424 1177.87 19.976 1178.54 20.392C1179.23 20.792 1179.97 20.992 1180.77 20.992C1181.59 20.992 1182.36 20.784 1183.08 20.368C1183.81 19.952 1184.32 19.408 1184.61 18.736L1186.03 19.12C1185.77 19.712 1185.38 20.248 1184.85 20.728C1184.32 21.208 1183.7 21.584 1182.98 21.856C1182.28 22.112 1181.52 22.24 1180.7 22.24ZM1176.09 15.16H1185.33C1185.27 14.248 1185.02 13.448 1184.59 12.76C1184.17 12.072 1183.62 11.536 1182.93 11.152C1182.26 10.752 1181.52 10.552 1180.7 10.552C1179.88 10.552 1179.14 10.752 1178.47 11.152C1177.8 11.536 1177.24 12.08 1176.81 12.784C1176.4 13.472 1176.16 14.264 1176.09 15.16ZM1188.38 18.4C1188.38 17.616 1188.6 16.944 1189.05 16.384C1189.5 15.808 1190.11 15.368 1190.9 15.064C1191.7 14.744 1192.62 14.584 1193.66 14.584C1194.27 14.584 1194.9 14.632 1195.55 14.728C1196.21 14.824 1196.79 14.968 1197.31 15.16V14.104C1197.31 13.048 1196.99 12.208 1196.37 11.584C1195.75 10.96 1194.88 10.648 1193.78 10.648C1193.11 10.648 1192.44 10.776 1191.79 11.032C1191.15 11.272 1190.47 11.632 1189.77 12.112L1189.15 10.96C1189.96 10.4 1190.76 9.984 1191.55 9.712C1192.33 9.424 1193.13 9.28 1193.95 9.28C1195.48 9.28 1196.7 9.72 1197.59 10.6C1198.49 11.48 1198.94 12.696 1198.94 14.248V20.032C1198.94 20.256 1198.99 20.424 1199.08 20.536C1199.18 20.632 1199.33 20.688 1199.54 20.704V22C1199.36 22.016 1199.21 22.032 1199.08 22.048C1198.95 22.064 1198.86 22.064 1198.79 22.048C1198.39 22.032 1198.09 21.904 1197.88 21.664C1197.67 21.424 1197.56 21.168 1197.55 20.896L1197.52 19.984C1196.96 20.704 1196.23 21.264 1195.34 21.664C1194.44 22.048 1193.53 22.24 1192.6 22.24C1191.8 22.24 1191.07 22.072 1190.42 21.736C1189.78 21.384 1189.27 20.92 1188.91 20.344C1188.55 19.752 1188.38 19.104 1188.38 18.4ZM1196.75 19.36C1196.93 19.136 1197.07 18.92 1197.16 18.712C1197.26 18.504 1197.31 18.32 1197.31 18.16V16.336C1196.76 16.128 1196.19 15.968 1195.6 15.856C1195.03 15.744 1194.44 15.688 1193.85 15.688C1192.68 15.688 1191.74 15.92 1191.02 16.384C1190.3 16.848 1189.94 17.48 1189.94 18.28C1189.94 18.744 1190.06 19.184 1190.3 19.6C1190.54 20 1190.89 20.336 1191.35 20.608C1191.82 20.864 1192.36 20.992 1192.99 20.992C1193.77 20.992 1194.5 20.84 1195.17 20.536C1195.86 20.232 1196.39 19.84 1196.75 19.36ZM1221.06 22H1219.43V15.016C1219.43 13.56 1219.2 12.488 1218.74 11.8C1218.27 11.112 1217.58 10.768 1216.67 10.768C1215.73 10.768 1214.88 11.104 1214.13 11.776C1213.39 12.448 1212.87 13.312 1212.57 14.368V22H1210.94V15.016C1210.94 13.544 1210.71 12.472 1210.26 11.8C1209.82 11.112 1209.13 10.768 1208.2 10.768C1207.27 10.768 1206.43 11.096 1205.68 11.752C1204.93 12.408 1204.4 13.272 1204.1 14.344V22H1202.46V9.496H1203.95V12.328C1204.48 11.352 1205.15 10.6 1205.97 10.072C1206.8 9.544 1207.72 9.28 1208.73 9.28C1209.77 9.28 1210.61 9.576 1211.25 10.168C1211.89 10.76 1212.28 11.536 1212.42 12.496C1213 11.44 1213.69 10.64 1214.49 10.096C1215.3 9.552 1216.22 9.28 1217.25 9.28C1217.95 9.28 1218.54 9.408 1219.02 9.664C1219.52 9.92 1219.91 10.288 1220.2 10.768C1220.5 11.232 1220.72 11.8 1220.85 12.472C1220.99 13.128 1221.06 13.864 1221.06 14.68V22Z" fill="white"/>
<path d="M822.939 296.939C822.354 297.525 822.354 298.475 822.939 299.061L832.485 308.607C833.071 309.192 834.021 309.192 834.607 308.607C835.192 308.021 835.192 307.071 834.607 306.485L826.121 298L834.607 289.515C835.192 288.929 835.192 287.979 834.607 287.393C834.021 286.808 833.071 286.808 832.485 287.393L822.939 296.939ZM1087 296.5L824 296.5L824 299.5L1087 299.5L1087 296.5Z" fill="#8E55D6"/>
<path d="M833.94 208.263C833.354 208.849 833.354 209.799 833.94 210.385L843.486 219.931C844.071 220.516 845.021 220.516 845.607 219.931C846.193 219.345 846.193 218.395 845.607 217.809L837.122 209.324L845.607 200.839C846.193 200.253 846.193 199.303 845.607 198.717C845.021 198.132 844.071 198.132 843.486 198.717L833.94 208.263ZM1087 207.824L835 207.824V210.824L1087 210.824V207.824Z" fill="#42D6F6"/>
<path d="M810.939 136.939C810.354 137.525 810.354 138.475 810.939 139.061L820.485 148.607C821.071 149.192 822.021 149.192 822.607 148.607C823.192 148.021 823.192 147.071 822.607 146.485L814.121 138L822.607 129.515C823.192 128.929 823.192 127.979 822.607 127.393C822.021 126.808 821.071 126.808 820.485 127.393L810.939 136.939ZM1087 136.5L812 136.5V139.5L1087 139.5V136.5Z" fill="#E72AA6"/>
<path d="M718 13V11.5H716.5V13H718ZM716.939 68.0607C717.525 68.6464 718.475 68.6464 719.061 68.0607L728.607 58.5147C729.192 57.9289 729.192 56.9792 728.607 56.3934C728.021 55.8076 727.071 55.8076 726.485 56.3934L718 64.8787L709.515 56.3934C708.929 55.8076 707.979 55.8076 707.393 56.3934C706.808 56.9792 706.808 57.9289 707.393 58.5147L716.939 68.0607ZM1087 11.5L718 11.5V14.5L1087 14.5V11.5ZM716.5 13V67H719.5V13H716.5Z" fill="#4BDE51"/>
<path d="M548.061 112.32C548.641 111.729 548.633 110.779 548.042 110.199L538.413 100.736C537.822 100.156 536.873 100.164 536.292 100.755C535.711 101.346 535.72 102.296 536.311 102.876L544.87 111.287L536.459 119.846C535.878 120.437 535.886 121.387 536.477 121.967C537.068 122.548 538.018 122.54 538.598 121.949L548.061 112.32ZM234.016 115.5L547.004 112.769L546.978 109.769L233.99 112.5L234.016 115.5Z" fill="#4B86DE"/>
<path d="M553.061 354.061C553.646 353.475 553.646 352.525 553.061 351.939L543.515 342.393C542.929 341.808 541.979 341.808 541.393 342.393C540.808 342.979 540.808 343.929 541.393 344.515L549.879 353L541.393 361.485C540.808 362.071 540.808 363.021 541.393 363.607C541.979 364.192 542.929 364.192 543.515 363.607L553.061 354.061ZM234 354.5H552V351.5H234V354.5Z" fill="#DE4B4B"/>
<path d="M504.061 229.704C504.642 229.113 504.633 228.163 504.043 227.583L494.414 218.12C493.823 217.54 492.873 217.548 492.292 218.139C491.712 218.73 491.72 219.68 492.311 220.26L500.87 228.671L492.459 237.23C491.878 237.821 491.887 238.771 492.478 239.351C493.068 239.932 494.018 239.924 494.599 239.333L504.061 229.704ZM234.014 232.5L503.004 230.153L502.978 227.153L233.988 229.5L234.014 232.5Z" fill="#E8EB61"/>
<defs>
<linearGradient id="paint0_linear_155_1202" x1="611.387" y1="36" x2="822.166" y2="320.654" gradientUnits="userSpaceOnUse">
<stop stop-color="#9E58D6"/>
<stop offset="1" stop-color="#2543AA"/>
</linearGradient>
</defs>
</svg>
