<svg width="167" height="60" viewBox="0 0 167 60" fill="none" xmlns="http://www.w3.org/2000/svg">
<path d="M24.0021 46.3167V60.0006L47.9999 46.1394V32.4573L24.0021 46.3167Z" fill="#7FD9FF"/>
<path d="M34.7446 19.8884L46.5854 13.0464L24.0021 0V13.6836L34.7446 19.8884Z" fill="#5A8CEE"/>
<path d="M14.6756 23.9741V37.6621L24.0019 43.0479V29.366L14.6756 23.9741Z" fill="#D7F4FB"/>
<path d="M47.9999 15.4988L24.0021 29.3657V43.0476L47.9999 29.1863V15.4988Z" fill="#7FD9FF"/>
<path d="M1.42928 13.0384L13.1992 19.9204L24.002 13.6836V0L1.42928 13.0384Z" fill="#7FD9FF"/>
<path d="M11.8449 39.2974V22.3327L0 15.4929V46.1389L24.0018 60.0001V46.3162L11.8449 39.2974Z" fill="#D7F4FB"/>
<path d="M60.8811 38.9802C59.5371 38.9802 58.3051 38.6602 57.1851 38.0202C56.0651 37.3802 55.1611 36.4682 54.4731 35.2842C53.8011 34.1002 53.4651 32.6842 53.4651 31.0362C53.4651 29.4042 53.7851 27.9802 54.4251 26.7642C55.0651 25.5322 55.9691 24.5802 57.1371 23.9082C58.3211 23.2202 59.7131 22.8762 61.3131 22.8762C61.8891 22.8762 62.4811 22.9322 63.0891 23.0442C63.7131 23.1562 64.2891 23.3482 64.8171 23.6202C65.3451 23.8762 65.7691 24.2202 66.0891 24.6522C66.4251 25.0842 66.5931 25.6202 66.5931 26.2602C66.6091 26.9482 66.4011 27.5562 65.9691 28.0842C65.5371 28.5962 64.9291 28.8522 64.1451 28.8522C63.6651 28.8522 63.3211 28.7402 63.1131 28.5162C62.9211 28.2762 62.8331 28.1002 62.8491 27.9882C62.8491 27.9402 62.9451 27.8602 63.1371 27.7482C63.3451 27.6202 63.5451 27.4362 63.7371 27.1962C63.9451 26.9402 64.0491 26.6042 64.0491 26.1882C64.0491 25.4682 63.8091 24.9002 63.3291 24.4842C62.8491 24.0522 62.1691 23.8362 61.2891 23.8362C60.3291 23.8362 59.4651 24.1082 58.6971 24.6522C57.9451 25.1962 57.3531 25.9962 56.9211 27.0522C56.4891 28.0922 56.2731 29.3722 56.2731 30.8922C56.2731 32.1722 56.4971 33.3402 56.9451 34.3962C57.4091 35.4362 58.0491 36.2682 58.8651 36.8922C59.6971 37.5002 60.6571 37.8042 61.7451 37.8042C62.6091 37.8042 63.3451 37.6282 63.9531 37.2762C64.5771 36.9082 65.1371 36.3242 65.6331 35.5242C65.7771 35.2522 66.0331 35.2282 66.4011 35.4522C66.5451 35.5482 66.6571 35.6682 66.7371 35.8122C66.8171 35.9402 66.8011 36.0762 66.6891 36.2202C66.0811 36.9882 65.5051 37.5722 64.9611 37.9722C64.4171 38.3562 63.8251 38.6202 63.1851 38.7642C62.5451 38.9082 61.7771 38.9802 60.8811 38.9802ZM68.7932 38.5722C68.6812 38.5722 68.5852 38.5242 68.5052 38.4282C68.4412 38.3162 68.4092 38.2042 68.4092 38.0922C68.4412 37.8522 68.5052 37.7242 68.6012 37.7082C68.6972 37.6762 68.8252 37.6602 68.9852 37.6602C69.4332 37.6602 69.7372 37.5882 69.8972 37.4442C70.0572 37.2842 70.1452 37.0762 70.1612 36.8202C70.1932 36.5642 70.2092 36.3002 70.2092 36.0282V30.5322C70.2092 30.2442 70.1932 29.9802 70.1612 29.7402C70.1452 29.4842 70.0572 29.2842 69.8972 29.1402C69.7372 28.9802 69.4332 28.9002 68.9852 28.9002C68.8412 28.9002 68.7052 28.8842 68.5772 28.8522C68.4652 28.8042 68.4092 28.6602 68.4092 28.4202C68.4092 28.1802 68.5372 28.0362 68.7932 27.9882C69.5292 27.8762 70.0892 27.7642 70.4732 27.6522C70.8732 27.5402 71.1692 27.4442 71.3612 27.3642C71.5692 27.2842 71.7532 27.2362 71.9132 27.2202C72.0412 27.2042 72.1452 27.2282 72.2252 27.2922C72.3212 27.3562 72.3692 27.4842 72.3692 27.6762V29.1642H72.4412C72.9852 28.6362 73.5452 28.2042 74.1212 27.8682C74.6972 27.5162 75.2252 27.3402 75.7052 27.3402C76.2652 27.3402 76.6892 27.5482 76.9772 27.9642C77.2812 28.3802 77.4332 28.8202 77.4332 29.2842C77.4332 29.6842 77.3052 30.0762 77.0492 30.4602C76.7932 30.8282 76.4092 31.0122 75.8972 31.0122C75.6412 31.0122 75.4332 30.9642 75.2732 30.8682C75.1292 30.7562 75.0492 30.6762 75.0332 30.6282C75.0332 30.5962 75.1052 30.5002 75.2492 30.3402C75.4092 30.1802 75.4892 29.9802 75.4892 29.7402C75.4892 29.4522 75.4092 29.2202 75.2492 29.0442C75.1052 28.8682 74.9052 28.7802 74.6492 28.7802C74.3772 28.7802 74.0252 28.9162 73.5932 29.1882C73.1772 29.4602 72.7772 29.7882 72.3932 30.1722V36.0282C72.3932 36.3002 72.4012 36.5642 72.4172 36.8202C72.4492 37.0762 72.5452 37.2842 72.7052 37.4442C72.8812 37.5882 73.1932 37.6602 73.6412 37.6602C73.7852 37.6602 73.9052 37.6762 74.0012 37.7082C74.1132 37.7242 74.1772 37.8522 74.1932 38.0922C74.1932 38.2042 74.1612 38.3162 74.0972 38.4282C74.0332 38.5242 73.9372 38.5722 73.8092 38.5722C73.3452 38.5402 72.9132 38.5162 72.5132 38.5002C72.1292 38.5002 71.7212 38.5002 71.2892 38.5002C70.8572 38.5002 70.4492 38.5002 70.0652 38.5002C69.6812 38.5162 69.2572 38.5402 68.7932 38.5722ZM80.1165 43.7322C79.6525 43.7322 79.2125 43.6282 78.7965 43.4202C78.3965 43.2122 78.0765 42.9322 77.8365 42.5802C77.5965 42.2442 77.4765 41.8762 77.4765 41.4762C77.4925 41.0442 77.5885 40.7082 77.7645 40.4682C77.9245 40.2442 78.1085 40.0842 78.3165 39.9882C78.5245 39.9082 78.7005 39.8602 78.8445 39.8442C78.9885 39.8282 79.0445 39.8202 79.0125 39.8202C79.3165 39.8202 79.5485 39.8762 79.7085 39.9882C79.8685 40.1162 79.9485 40.2202 79.9485 40.3002C79.9485 40.3322 79.8845 40.4042 79.7565 40.5162C79.6445 40.6442 79.5805 40.8602 79.5645 41.1642C79.5485 41.4522 79.6365 41.7322 79.8285 42.0042C80.0205 42.2762 80.3165 42.4122 80.7165 42.4122C81.1645 42.4122 81.5725 42.2442 81.9405 41.9082C82.3085 41.5882 82.6365 41.1882 82.9245 40.7082C83.2125 40.2282 83.4605 39.7642 83.6685 39.3162C83.7805 38.9642 83.7725 38.5962 83.6445 38.2122C83.2605 37.3482 82.8845 36.4282 82.5165 35.4522C82.1485 34.4762 81.7885 33.5322 81.4365 32.6202C81.1005 31.7082 80.7645 30.9082 80.4285 30.2202C80.1725 29.6282 79.9245 29.2122 79.6845 28.9722C79.4445 28.7162 79.0845 28.5562 78.6045 28.4922C78.3965 28.4602 78.2525 28.4282 78.1725 28.3962C78.1085 28.3642 78.0685 28.2442 78.0525 28.0362C78.0365 27.7642 78.1085 27.6202 78.2685 27.6042C78.4445 27.5722 78.6525 27.5482 78.8925 27.5322C79.8845 27.4842 80.6605 27.6282 81.2205 27.9642C81.7805 28.3002 82.2365 28.8682 82.5885 29.6682C82.8125 30.1642 83.0605 30.7802 83.3325 31.5162C83.6045 32.2522 83.8925 32.9962 84.1965 33.7482C84.5005 34.5002 84.7965 35.1802 85.0845 35.7882H85.1565L87.5085 29.5002C87.6685 29.0362 87.6765 28.7482 87.5325 28.6362C87.3885 28.5242 87.0765 28.4682 86.5965 28.4682C86.4525 28.4682 86.3325 28.4602 86.2365 28.4442C86.1405 28.4122 86.0845 28.2762 86.0685 28.0362C86.0685 27.9402 86.0925 27.8362 86.1405 27.7242C86.2045 27.6122 86.2925 27.5562 86.4045 27.5562C86.8685 27.5722 87.2685 27.5882 87.6045 27.6042C87.9405 27.6202 88.3165 27.6282 88.7325 27.6282C89.0205 27.6282 89.2525 27.6282 89.4285 27.6282C89.6045 27.6122 89.7885 27.6042 89.9805 27.6042C90.1725 27.5882 90.4205 27.5722 90.7245 27.5562C90.8525 27.5562 90.9405 27.6122 90.9885 27.7242C91.0525 27.8362 91.0845 27.9402 91.0845 28.0362C91.0685 28.2762 91.0045 28.4122 90.8925 28.4442C90.7965 28.4602 90.6845 28.4682 90.5565 28.4682C90.0285 28.4682 89.6045 28.5642 89.2845 28.7562C88.9805 28.9482 88.7165 29.3242 88.4925 29.8842C88.4925 29.8842 88.4045 30.0922 88.2285 30.5082C88.0685 30.9242 87.8525 31.4682 87.5805 32.1402C87.3085 32.8122 87.0205 33.5242 86.7165 34.2762C86.4125 35.0122 86.1245 35.7162 85.8525 36.3882C85.5805 37.0602 85.3565 37.6122 85.1805 38.0442C85.0045 38.4762 84.9085 38.7082 84.8925 38.7402C84.6845 39.2362 84.4285 39.7722 84.1245 40.3482C83.8365 40.9402 83.4925 41.4842 83.0925 41.9802C82.7085 42.4922 82.2685 42.9082 81.7725 43.2282C81.2765 43.5642 80.7245 43.7322 80.1165 43.7322ZM96.1695 38.7882C94.9375 38.7882 93.9055 38.5722 93.0735 38.1402C92.2575 37.6922 91.8495 37.0522 91.8495 36.2202C91.8495 35.7562 91.9855 35.3802 92.2575 35.0922C92.5455 34.8042 92.9135 34.6602 93.3615 34.6602C93.6495 34.6602 93.8815 34.7402 94.0575 34.9002C94.2495 35.0442 94.3455 35.1482 94.3455 35.2122C94.3455 35.2602 94.2495 35.3722 94.0575 35.5482C93.8815 35.7082 93.7935 35.9722 93.7935 36.3402C93.7935 36.7882 94.0015 37.1642 94.4175 37.4682C94.8495 37.7562 95.4975 37.9002 96.3615 37.9002C97.1135 37.9002 97.6975 37.7402 98.1135 37.4202C98.5455 37.0842 98.7615 36.6202 98.7615 36.0282C98.7615 35.5482 98.6015 35.1802 98.2815 34.9242C97.9775 34.6522 97.5775 34.4362 97.0815 34.2762C96.6015 34.1162 96.0815 33.9562 95.5215 33.7962C94.9775 33.6362 94.4575 33.4362 93.9615 33.1962C93.4655 32.9562 93.0575 32.6282 92.7375 32.2122C92.4335 31.7802 92.2815 31.2122 92.2815 30.5082C92.2815 29.7882 92.4975 29.1962 92.9295 28.7322C93.3615 28.2682 93.9135 27.9242 94.5855 27.7002C95.2575 27.4602 95.9375 27.3402 96.6255 27.3402C97.2175 27.3402 97.7775 27.4282 98.3055 27.6042C98.8335 27.7642 99.2655 28.0122 99.6015 28.3482C99.9535 28.6842 100.13 29.1082 100.13 29.6202C100.13 30.0202 100.002 30.3802 99.7455 30.7002C99.4895 31.0202 99.1375 31.1802 98.6895 31.1802C98.4015 31.1802 98.1615 31.1082 97.9695 30.9642C97.7935 30.8042 97.7055 30.6922 97.7055 30.6282C97.7055 30.5962 97.7615 30.5402 97.8735 30.4602C98.0015 30.3642 98.1215 30.2442 98.2335 30.1002C98.3455 29.9402 98.4015 29.7402 98.4015 29.5002C98.3695 29.0362 98.1455 28.6922 97.7295 28.4682C97.3135 28.2442 96.8495 28.1322 96.3375 28.1322C95.7775 28.1322 95.2575 28.2682 94.7775 28.5402C94.2975 28.8122 94.0575 29.2042 94.0575 29.7162C94.0575 30.1802 94.1535 30.5402 94.3455 30.7962C94.5535 31.0522 94.8735 31.2762 95.3055 31.4682C95.7535 31.6442 96.3295 31.8442 97.0335 32.0682C97.7375 32.2922 98.3535 32.5242 98.8815 32.7642C99.4255 33.0042 99.8415 33.3242 100.13 33.7242C100.434 34.1082 100.586 34.6362 100.586 35.3082C100.586 35.9802 100.394 36.5802 100.01 37.1082C99.6255 37.6362 99.0975 38.0522 98.4255 38.3562C97.7695 38.6442 97.0175 38.7882 96.1695 38.7882ZM106.762 38.9082C106.282 38.9082 105.826 38.7882 105.394 38.5482C104.962 38.3082 104.602 37.9402 104.314 37.4442C104.042 36.9482 103.906 36.3242 103.906 35.5722V28.5162L102.514 28.5642C102.402 28.5642 102.314 28.5242 102.25 28.4442C102.202 28.3482 102.178 28.2442 102.178 28.1322C102.178 27.8122 102.29 27.6282 102.514 27.5802C103.106 27.4682 103.554 27.2842 103.858 27.0282C104.162 26.7562 104.394 26.4362 104.554 26.0682C104.73 25.7002 104.89 25.3002 105.034 24.8682C105.082 24.7402 105.154 24.6602 105.25 24.6282C105.346 24.5802 105.45 24.5562 105.562 24.5562C105.658 24.5562 105.762 24.5802 105.874 24.6282C106.002 24.6762 106.066 24.7642 106.066 24.8922L105.898 27.6282L108.706 27.4602C108.85 27.4442 108.946 27.4842 108.994 27.5802C109.042 27.6762 109.066 27.7882 109.066 27.9162C109.066 28.0762 109.034 28.2362 108.97 28.3962C108.922 28.5562 108.858 28.6362 108.778 28.6362L106.09 28.5642V35.8602C106.09 36.3242 106.186 36.7482 106.378 37.1322C106.586 37.5162 106.954 37.7082 107.482 37.7082C107.658 37.7082 107.858 37.6922 108.082 37.6602C108.306 37.6282 108.546 37.5562 108.802 37.4442C108.866 37.4122 108.93 37.3882 108.994 37.3722C109.058 37.3402 109.122 37.3242 109.186 37.3242C109.314 37.3242 109.41 37.3802 109.474 37.4922C109.538 37.5882 109.594 37.6922 109.642 37.8042C109.69 37.9482 109.65 38.0602 109.522 38.1402C109.026 38.4602 108.57 38.6682 108.154 38.7642C107.738 38.8602 107.274 38.9082 106.762 38.9082ZM114.704 38.7882C113.728 38.7882 112.944 38.5082 112.352 37.9482C111.776 37.3882 111.488 36.7162 111.488 35.9322C111.488 35.1162 111.696 34.4762 112.112 34.0122C112.544 33.5482 113.104 33.2042 113.792 32.9802C114.496 32.7562 115.256 32.6042 116.072 32.5242C116.904 32.4442 117.712 32.3802 118.496 32.3322V30.4362C118.496 29.6842 118.304 29.1002 117.92 28.6842C117.552 28.2522 116.92 28.0362 116.024 28.0362C115.576 28.0362 115.152 28.1802 114.752 28.4682C114.368 28.7562 114.176 29.1722 114.176 29.7162C114.176 29.9722 114.24 30.1882 114.368 30.3642C114.496 30.5402 114.624 30.6762 114.752 30.7722C114.88 30.8682 114.944 30.9322 114.944 30.9642C114.944 31.0282 114.848 31.1482 114.656 31.3242C114.48 31.4842 114.232 31.5642 113.912 31.5642C113.416 31.5642 113.032 31.3802 112.76 31.0122C112.488 30.6442 112.352 30.2362 112.352 29.7882C112.352 29.1802 112.536 28.7002 112.904 28.3482C113.288 27.9962 113.776 27.7402 114.368 27.5802C114.96 27.4202 115.56 27.3402 116.168 27.3402C116.888 27.3402 117.584 27.4282 118.256 27.6042C118.944 27.7802 119.504 28.1162 119.936 28.6122C120.384 29.1082 120.608 29.8522 120.608 30.8442V36.4362C120.624 36.5962 120.664 36.7882 120.728 37.0122C120.792 37.2362 120.912 37.4362 121.088 37.6122C121.28 37.7722 121.536 37.8522 121.856 37.8522C121.968 37.8522 122.056 37.8762 122.12 37.9242C122.184 37.9562 122.216 38.0602 122.216 38.2362C122.216 38.3802 122.136 38.4922 121.976 38.5722C121.816 38.6522 121.632 38.7082 121.424 38.7402C121.216 38.7722 121.04 38.7882 120.896 38.7882C120.304 38.7882 119.776 38.6202 119.312 38.2842C118.848 37.9322 118.576 37.4522 118.496 36.8442C118.144 37.4842 117.616 37.9722 116.912 38.3082C116.224 38.6282 115.488 38.7882 114.704 38.7882ZM115.472 37.4922C116.016 37.4922 116.512 37.3562 116.96 37.0842C117.424 36.8122 117.792 36.4442 118.064 35.9802C118.352 35.5002 118.496 34.9722 118.496 34.3962V33.0282C116.848 33.1402 115.672 33.4042 114.968 33.8202C114.264 34.2362 113.912 34.9162 113.912 35.8602C113.912 36.9482 114.432 37.4922 115.472 37.4922ZM123.631 38.5722C123.519 38.5722 123.423 38.5242 123.343 38.4282C123.279 38.3162 123.247 38.2042 123.247 38.0922C123.263 37.8522 123.319 37.7242 123.415 37.7082C123.527 37.6762 123.655 37.6602 123.799 37.6602C124.247 37.6602 124.551 37.5882 124.711 37.4442C124.887 37.2842 124.983 37.0762 124.999 36.8202C125.031 36.5642 125.047 36.3002 125.047 36.0282V24.3162C125.047 24.0282 125.031 23.7642 124.999 23.5242C124.983 23.2682 124.895 23.0682 124.735 22.9242C124.575 22.7642 124.271 22.6842 123.823 22.6842C123.679 22.6842 123.543 22.6682 123.415 22.6362C123.303 22.5882 123.247 22.4442 123.247 22.2042C123.247 21.9642 123.375 21.8202 123.631 21.7722C124.367 21.6602 124.927 21.5482 125.311 21.4362C125.711 21.3242 126.015 21.2282 126.223 21.1482C126.431 21.0682 126.615 21.0202 126.775 21.0042C126.903 20.9882 127.007 21.0122 127.087 21.0762C127.183 21.1402 127.231 21.2682 127.231 21.4602V36.0282C127.231 36.3002 127.239 36.5642 127.255 36.8202C127.287 37.0762 127.383 37.2842 127.543 37.4442C127.719 37.5882 128.031 37.6602 128.479 37.6602C128.623 37.6602 128.743 37.6762 128.839 37.7082C128.951 37.7242 129.015 37.8522 129.031 38.0922C129.031 38.2042 128.999 38.3162 128.935 38.4282C128.871 38.5242 128.775 38.5722 128.647 38.5722C128.183 38.5402 127.751 38.5162 127.351 38.5002C126.967 38.5002 126.559 38.5002 126.127 38.5002C125.695 38.5002 125.287 38.5002 124.903 38.5002C124.519 38.5162 124.095 38.5402 123.631 38.5722Z" fill="#EFF5FF"/>
<path d="M135.923 38.9802C134.259 38.9802 132.979 38.6922 132.083 38.1162C131.187 37.5242 130.739 36.6602 130.739 35.5242C130.739 34.9482 130.931 34.4762 131.315 34.1082C131.715 33.7242 132.227 33.5322 132.851 33.5322C133.267 33.5482 133.555 33.6522 133.715 33.8442C133.891 34.0362 133.979 34.1802 133.979 34.2762C133.979 34.3082 133.907 34.3642 133.763 34.4442C133.619 34.5082 133.475 34.6362 133.331 34.8282C133.187 35.0042 133.115 35.2842 133.115 35.6682C133.115 36.3882 133.339 36.9642 133.787 37.3962C134.235 37.8122 134.947 38.0202 135.923 38.0202C136.611 38.0202 137.195 37.8922 137.675 37.6362C138.171 37.3642 138.547 37.0202 138.803 36.6042C139.059 36.1722 139.187 35.7322 139.187 35.2842C139.187 34.6122 138.995 34.0602 138.611 33.6282C138.227 33.1962 137.723 32.8282 137.099 32.5242C136.491 32.2042 135.843 31.9002 135.155 31.6122C134.467 31.3242 133.811 30.9962 133.187 30.6282C132.579 30.2602 132.075 29.8042 131.675 29.2602C131.275 28.7002 131.067 28.0042 131.051 27.1722C131.035 26.1642 131.251 25.3482 131.699 24.7242C132.147 24.0842 132.771 23.6202 133.571 23.3322C134.371 23.0282 135.259 22.8762 136.235 22.8762C136.955 22.8762 137.659 22.9802 138.347 23.1882C139.051 23.3962 139.627 23.7242 140.075 24.1722C140.539 24.6042 140.771 25.1802 140.771 25.9002C140.771 26.4762 140.571 26.9562 140.171 27.3402C139.787 27.7082 139.283 27.8922 138.659 27.8922C138.243 27.8602 137.947 27.7562 137.771 27.5802C137.611 27.3882 137.531 27.2442 137.531 27.1482C137.531 27.1002 137.627 27.0442 137.819 26.9802C138.011 26.9002 138.203 26.7722 138.395 26.5962C138.587 26.4042 138.683 26.1242 138.683 25.7562C138.683 25.1482 138.451 24.6842 137.987 24.3642C137.523 24.0282 136.947 23.8602 136.259 23.8602C135.219 23.8602 134.459 24.1082 133.979 24.6042C133.515 25.0842 133.283 25.6282 133.283 26.2362C133.283 26.8282 133.443 27.3082 133.763 27.6762C134.083 28.0442 134.563 28.4042 135.203 28.7562C135.923 29.1402 136.651 29.5002 137.387 29.8362C138.123 30.1562 138.803 30.5162 139.427 30.9162C140.067 31.3162 140.579 31.8202 140.963 32.4282C141.347 33.0202 141.539 33.7882 141.539 34.7322C141.539 35.5482 141.283 36.2762 140.771 36.9162C140.275 37.5562 139.603 38.0602 138.755 38.4282C137.907 38.7962 136.963 38.9802 135.923 38.9802ZM149.241 38.7882C148.009 38.7882 146.969 38.5242 146.121 37.9962C145.289 37.4682 144.665 36.7642 144.249 35.8842C143.833 35.0042 143.625 34.0442 143.625 33.0042C143.625 32.3002 143.745 31.6202 143.985 30.9642C144.241 30.2922 144.601 29.6842 145.065 29.1402C145.529 28.5802 146.089 28.1402 146.745 27.8202C147.401 27.5002 148.145 27.3402 148.977 27.3402C150.449 27.3402 151.553 27.7242 152.289 28.4922C153.041 29.2442 153.473 30.2042 153.585 31.3722C153.585 31.9322 153.425 32.3002 153.105 32.4762C152.801 32.6522 152.401 32.7402 151.905 32.7402H146.073C146.073 33.6682 146.201 34.5002 146.457 35.2362C146.713 35.9562 147.113 36.5322 147.657 36.9642C148.217 37.3802 148.953 37.5882 149.865 37.5882C150.537 37.5882 151.113 37.4442 151.593 37.1562C152.073 36.8682 152.537 36.3642 152.985 35.6442C153.113 35.4842 153.289 35.4762 153.513 35.6202C153.641 35.6842 153.721 35.7882 153.753 35.9322C153.785 36.0602 153.769 36.1722 153.705 36.2682C153.209 37.0522 152.585 37.6682 151.833 38.1162C151.081 38.5642 150.217 38.7882 149.241 38.7882ZM146.073 31.8282H149.985C150.369 31.8282 150.673 31.7562 150.897 31.6122C151.137 31.4522 151.265 31.1882 151.281 30.8202C151.281 30.1322 151.089 29.5242 150.705 28.9962C150.337 28.4522 149.761 28.1802 148.977 28.1802C148.177 28.1802 147.505 28.5002 146.961 29.1402C146.433 29.7802 146.137 30.6762 146.073 31.8282ZM158.72 38.7882C157.744 38.7882 156.96 38.5082 156.368 37.9482C155.792 37.3882 155.504 36.7162 155.504 35.9322C155.504 35.1162 155.712 34.4762 156.128 34.0122C156.56 33.5482 157.12 33.2042 157.808 32.9802C158.512 32.7562 159.272 32.6042 160.088 32.5242C160.92 32.4442 161.728 32.3802 162.512 32.3322V30.4362C162.512 29.6842 162.32 29.1002 161.936 28.6842C161.568 28.2522 160.936 28.0362 160.04 28.0362C159.592 28.0362 159.168 28.1802 158.768 28.4682C158.384 28.7562 158.192 29.1722 158.192 29.7162C158.192 29.9722 158.256 30.1882 158.384 30.3642C158.512 30.5402 158.64 30.6762 158.768 30.7722C158.896 30.8682 158.96 30.9322 158.96 30.9642C158.96 31.0282 158.864 31.1482 158.672 31.3242C158.496 31.4842 158.248 31.5642 157.928 31.5642C157.432 31.5642 157.048 31.3802 156.776 31.0122C156.504 30.6442 156.368 30.2362 156.368 29.7882C156.368 29.1802 156.552 28.7002 156.92 28.3482C157.304 27.9962 157.792 27.7402 158.384 27.5802C158.976 27.4202 159.576 27.3402 160.184 27.3402C160.904 27.3402 161.6 27.4282 162.272 27.6042C162.96 27.7802 163.52 28.1162 163.952 28.6122C164.4 29.1082 164.624 29.8522 164.624 30.8442V36.4362C164.64 36.5962 164.68 36.7882 164.744 37.0122C164.808 37.2362 164.928 37.4362 165.104 37.6122C165.296 37.7722 165.552 37.8522 165.872 37.8522C165.984 37.8522 166.072 37.8762 166.136 37.9242C166.2 37.9562 166.232 38.0602 166.232 38.2362C166.232 38.3802 166.152 38.4922 165.992 38.5722C165.832 38.6522 165.648 38.7082 165.44 38.7402C165.232 38.7722 165.056 38.7882 164.912 38.7882C164.32 38.7882 163.792 38.6202 163.328 38.2842C162.864 37.9322 162.592 37.4522 162.512 36.8442C162.16 37.4842 161.632 37.9722 160.928 38.3082C160.24 38.6282 159.504 38.7882 158.72 38.7882ZM159.488 37.4922C160.032 37.4922 160.528 37.3562 160.976 37.0842C161.44 36.8122 161.808 36.4442 162.08 35.9802C162.368 35.5002 162.512 34.9722 162.512 34.3962V33.0282C160.864 33.1402 159.688 33.4042 158.984 33.8202C158.28 34.2362 157.928 34.9162 157.928 35.8602C157.928 36.9482 158.448 37.4922 159.488 37.4922Z" fill="#5A8CED"/>
</svg>
