<svg width="22" height="22" viewBox="0 0 22 22" fill="none" xmlns="http://www.w3.org/2000/svg">
<rect width="22" height="22" rx="11" fill="url(#paint0_radial_159_132)"/>
<g clip-path="url(#clip0_159_132)">
<path d="M16.4666 6.79999H6.4666V6.39999L15.2666 5.69599V6.39999H16.4666V5.19999C16.4666 4.31999 15.7538 3.70239 14.8834 3.82639L6.8506 4.97359C5.9794 5.09839 5.2666 5.91999 5.2666 6.79999V14.8C5.2666 15.2243 5.43517 15.6313 5.73523 15.9314C6.03529 16.2314 6.44226 16.4 6.8666 16.4H16.4666C16.8909 16.4 17.2979 16.2314 17.598 15.9314C17.898 15.6313 18.0666 15.2243 18.0666 14.8V8.39999C18.0666 7.97564 17.898 7.56868 17.598 7.26862C17.2979 6.96856 16.8909 6.79999 16.4666 6.79999ZM15.2666 12.4048C15.109 12.4047 14.9529 12.3736 14.8073 12.3133C14.6616 12.2529 14.5293 12.1644 14.4179 12.0529C14.3065 11.9414 14.2181 11.8091 14.1578 11.6634C14.0975 11.5177 14.0665 11.3616 14.0666 11.204C14.0667 11.0464 14.0978 10.8903 14.1581 10.7446C14.2185 10.599 14.307 10.4667 14.4185 10.3553C14.53 10.2439 14.6623 10.1555 14.808 10.0952C14.9537 10.0349 15.1098 10.0039 15.2674 10.004C15.5858 10.0041 15.8911 10.1307 16.1161 10.3559C16.3411 10.5811 16.4675 10.8864 16.4674 11.2048C16.4673 11.5232 16.3407 11.8284 16.1155 12.0535C15.8903 12.2785 15.585 12.4049 15.2666 12.4048Z" fill="white"/>
</g>
<defs>
<radialGradient id="paint0_radial_159_132" cx="0" cy="0" r="1" gradientUnits="userSpaceOnUse" gradientTransform="translate(8.77076 7) rotate(81.8212) scale(15.9267 15.8131)">
<stop offset="0.600338" stop-color="#34113F"/>
<stop offset="1" stop-color="#1D1E3E"/>
</radialGradient>
<clipPath id="clip0_159_132">
<rect width="16" height="16" fill="white" transform="translate(1 2)"/>
</clipPath>
</defs>
</svg>
