<svg width="22" height="29" viewBox="0 0 29 33" fill="none" xmlns="http://www.w3.org/2000/svg">
<path fill-rule="evenodd" clip-rule="evenodd" d="M0.851868 16.7616C0.851868 12.4549 2.33467 8.32465 4.97407 5.27936C7.61347 2.23408 11.1933 0.523254 14.9259 0.523254C18.6586 0.523254 22.2384 2.23408 24.8778 5.27936C27.5172 8.32465 29 12.4549 29 16.7616C29 21.0683 27.5172 25.1986 24.8778 28.2439C22.2384 31.2892 18.6586 33 14.9259 33C11.1933 33 7.61347 31.2892 4.97407 28.2439C2.33467 25.1986 0.851868 21.0683 0.851868 16.7616ZM14.1228 23.7117L22.2257 12.0244L20.762 10.6733L13.8526 20.635L8.95853 15.9302L7.75754 17.593L14.1228 23.7138V23.7117Z" fill="#34113F"/>
</svg>
