<svg width="22" height="33" viewBox="0 0 29 33" fill="none" xmlns="http://www.w3.org/2000/svg">
<path fill-rule="evenodd" clip-rule="evenodd" d="M0.851852 16.6666C0.851852 12.4674 2.33465 8.44011 4.97405 5.47079C7.61345 2.50146 11.1932 0.833313 14.9259 0.833313C18.6586 0.833313 22.2384 2.50146 24.8778 5.47079C27.5172 8.44011 29 12.4674 29 16.6666C29 20.8659 27.5172 24.8932 24.8778 27.8625C22.2384 30.8318 18.6586 32.5 14.9259 32.5C11.1932 32.5 7.61345 30.8318 4.97405 27.8625C2.33465 24.8932 0.851852 20.8659 0.851852 16.6666ZM14.1228 23.4433L22.2257 12.0475L20.762 10.7302L13.8525 20.4434L8.95852 15.856L7.75753 17.4773L14.1228 23.4454V23.4433Z" fill="#B00000"/>
</svg>
