<svg width="22" height="32" viewBox="0 0 29 32" fill="none" xmlns="http://www.w3.org/2000/svg">
<path fill-rule="evenodd" clip-rule="evenodd" d="M0.851807 16.1667C0.851807 11.9674 2.33461 7.94015 4.97401 4.97082C7.61342 2.00149 11.1932 0.333344 14.9259 0.333344C18.6586 0.333344 22.2384 2.00149 24.8778 4.97082C27.5172 7.94015 29 11.9674 29 16.1667C29 20.3659 27.5172 24.3932 24.8778 27.3625C22.2384 30.3319 18.6586 32 14.9259 32C11.1932 32 7.61342 30.3319 4.97401 27.3625C2.33461 24.3932 0.851807 20.3659 0.851807 16.1667ZM14.1227 22.9433L22.2257 11.5476L20.762 10.2302L13.8525 19.9435L8.95849 15.356L7.7575 16.9773L14.1227 22.9455V22.9433Z" fill="#BFAF1C"/>
</svg>
