<svg width="25" height="25" viewBox="0 0 28 26" fill="none" xmlns="http://www.w3.org/2000/svg">
<path d="M26.4999 4.36671C25.3832 2.07504 22.1666 0.200038 18.4249 1.29171C16.6369 1.80815 15.077 2.91569 13.9999 4.43337C12.9228 2.91569 11.3628 1.80815 9.57489 1.29171C5.82489 0.216705 2.61656 2.07504 1.49989 4.36671C-0.0667775 7.57504 0.583223 11.1834 3.43322 15.0917C5.66656 18.15 8.85822 21.25 13.4916 24.85C13.638 24.9642 13.8184 25.0263 14.0041 25.0263C14.1898 25.0263 14.3701 24.9642 14.5166 24.85C19.1416 21.2584 22.3416 18.1834 24.5749 15.0917C27.4166 11.1834 28.0666 7.57504 26.4999 4.36671Z" fill="black"/>
</svg>
