<svg width="1214" height="2490" viewBox="0 0 1214 2490" fill="none" xmlns="http://www.w3.org/2000/svg">
<path opacity="0.2" d="M-163.801 1C-46.1791 136.325 279.704 412.726 642.257 435.723C1095.45 464.47 1283.99 503.777 1188.28 873.38C1092.56 1242.98 63.371 977.807 137.75 1617.28C197.253 2128.86 -117.291 2146.85 -282 2091.9" stroke="url(#paint0_linear_19_286)"/>
<path opacity="0.2" d="M-163.801 19.7735C-46.1791 155.099 279.704 431.499 642.257 454.497C1095.45 483.243 1283.99 522.55 1188.28 892.153C1092.56 1261.76 63.371 996.581 137.75 1636.05C197.253 2147.63 -117.291 2165.62 -282 2110.67" stroke="url(#paint1_linear_19_286)"/>
<path opacity="0.2" d="M-163.801 38.5469C-46.1791 173.872 279.704 450.273 642.257 473.27C1095.45 502.017 1283.99 541.324 1188.28 910.927C1092.56 1280.53 63.371 1015.35 137.75 1654.83C197.253 2166.4 -117.291 2184.39 -282 2129.44" stroke="url(#paint2_linear_19_286)"/>
<path opacity="0.2" d="M-163.801 57.3204C-46.1791 192.646 279.704 469.046 642.257 492.044C1095.45 520.79 1283.99 560.097 1188.28 929.7C1092.56 1299.3 63.371 1034.13 137.75 1673.6C197.253 2185.18 -117.291 2203.17 -282 2148.22" stroke="url(#paint3_linear_19_286)"/>
<path opacity="0.2" d="M-163.801 76.0939C-46.1791 211.419 279.704 487.819 642.257 510.817C1095.45 539.564 1283.99 578.871 1188.28 948.473C1092.56 1318.08 63.371 1052.9 137.75 1692.37C197.253 2203.95 -117.291 2221.94 -282 2166.99" stroke="url(#paint4_linear_19_286)"/>
<path opacity="0.2" d="M-163.801 94.8673C-46.1791 230.193 279.704 506.593 642.257 529.59C1095.45 558.337 1283.99 597.644 1188.28 967.247C1092.56 1336.85 63.371 1071.67 137.75 1711.15C197.253 2222.72 -117.291 2240.71 -282 2185.76" stroke="url(#paint5_linear_19_286)"/>
<path opacity="0.2" d="M-163.801 113.641C-46.1791 248.966 279.704 525.366 642.257 548.364C1095.45 577.111 1283.99 616.418 1188.28 986.02C1092.56 1355.62 63.371 1090.45 137.75 1729.92C197.253 2241.5 -117.291 2259.49 -282 2204.54" stroke="url(#paint6_linear_19_286)"/>
<path opacity="0.2" d="M-163.801 132.414C-46.1791 267.74 279.704 544.14 642.257 567.137C1095.45 595.884 1283.99 635.191 1188.28 1004.79C1092.56 1374.4 63.371 1109.22 137.75 1748.69C197.253 2260.27 -117.291 2278.26 -282 2223.31" stroke="url(#paint7_linear_19_286)"/>
<path opacity="0.2" d="M-163.801 151.188C-46.1791 286.513 279.704 562.913 642.257 585.911C1095.45 614.658 1283.99 653.965 1188.28 1023.57C1092.56 1393.17 63.371 1127.99 137.75 1767.47C197.253 2279.04 -117.291 2297.03 -282 2242.08" stroke="url(#paint8_linear_19_286)"/>
<path opacity="0.2" d="M-163.801 169.961C-46.1791 305.287 279.704 581.687 642.257 604.684C1095.45 633.431 1283.99 672.738 1188.28 1042.34C1092.56 1411.94 63.371 1146.77 137.75 1786.24C197.253 2297.82 -117.291 2315.81 -282 2260.86" stroke="url(#paint9_linear_19_286)"/>
<path opacity="0.2" d="M-163.801 188.735C-46.1791 324.06 279.704 600.46 642.257 623.458C1095.45 652.205 1283.99 691.512 1188.28 1061.11C1092.56 1430.72 63.371 1165.54 137.75 1805.01C197.253 2316.59 -117.291 2334.58 -282 2279.63" stroke="url(#paint10_linear_19_286)"/>
<path opacity="0.2" d="M-163.801 207.508C-46.1791 342.834 279.704 619.234 642.257 642.231C1095.45 670.978 1283.99 710.285 1188.28 1079.89C1092.56 1449.49 63.371 1184.32 137.75 1823.79C197.253 2335.36 -117.291 2353.35 -282 2298.4" stroke="url(#paint11_linear_19_286)"/>
<path opacity="0.2" d="M-163.801 226.282C-46.1791 361.607 279.704 638.007 642.257 661.005C1095.45 689.752 1283.99 729.059 1188.28 1098.66C1092.56 1468.26 63.371 1203.09 137.75 1842.56C197.253 2354.14 -117.291 2372.13 -282 2317.18" stroke="url(#paint12_linear_19_286)"/>
<path opacity="0.2" d="M-163.801 245.055C-46.1791 380.38 279.704 656.781 642.257 679.778C1095.45 708.525 1283.99 747.832 1188.28 1117.43C1092.56 1487.04 63.371 1221.86 137.75 1861.33C197.253 2372.91 -117.291 2390.9 -282 2335.95" stroke="url(#paint13_linear_19_286)"/>
<path opacity="0.2" d="M-163.801 263.829C-46.1791 399.154 279.704 675.554 642.257 698.552C1095.45 727.299 1283.99 766.605 1188.28 1136.21C1092.56 1505.81 63.371 1240.64 137.75 1880.11C197.253 2391.68 -117.291 2409.68 -282 2354.72" stroke="url(#paint14_linear_19_286)"/>
<path opacity="0.2" d="M-163.801 282.602C-46.1791 417.927 279.704 694.328 642.257 717.325C1095.45 746.072 1283.99 785.379 1188.28 1154.98C1092.56 1524.58 63.371 1259.41 137.75 1898.88C197.253 2410.46 -117.291 2428.45 -282 2373.5" stroke="url(#paint15_linear_19_286)"/>
<path opacity="0.2" d="M-163.801 301.375C-46.1791 436.701 279.704 713.101 642.257 736.099C1095.45 764.845 1283.99 804.152 1188.28 1173.76C1092.56 1543.36 63.371 1278.18 137.75 1917.65C197.253 2429.23 -117.291 2447.22 -282 2392.27" stroke="url(#paint16_linear_19_286)"/>
<path opacity="0.2" d="M-163.801 320.149C-46.1791 455.474 279.704 731.875 642.257 754.872C1095.45 783.619 1283.99 822.926 1188.28 1192.53C1092.56 1562.13 63.371 1296.96 137.75 1936.43C197.253 2448 -117.291 2466 -282 2411.04" stroke="url(#paint17_linear_19_286)"/>
<path opacity="0.2" d="M-163.801 338.922C-46.1791 474.248 279.704 750.648 642.257 773.646C1095.45 802.392 1283.99 841.699 1188.28 1211.3C1092.56 1580.9 63.371 1315.73 137.75 1955.2C197.253 2466.78 -117.291 2484.77 -282 2429.82" stroke="url(#paint18_linear_19_286)"/>
<path opacity="0.2" d="M-163.801 357.696C-46.1791 493.021 279.704 769.421 642.257 792.419C1095.45 821.166 1283.99 860.473 1188.28 1230.08C1092.56 1599.68 63.371 1334.5 137.75 1973.97C197.253 2485.55 -117.291 2503.54 -282 2448.59" stroke="url(#paint19_linear_19_286)"/>
<path opacity="0.2" d="M-163.801 376.469C-46.1791 511.795 279.704 788.195 642.257 811.192C1095.45 839.939 1283.99 879.246 1188.28 1248.85C1092.56 1618.45 63.371 1353.28 137.75 1992.75C197.253 2504.32 -117.291 2522.32 -282 2467.36" stroke="url(#paint20_linear_19_286)"/>
<defs>
<linearGradient id="paint0_linear_19_286" x1="973.619" y1="-166.457" x2="-646.456" y2="2764.44" gradientUnits="userSpaceOnUse">
<stop stop-color="white"/>
<stop offset="0.289499" stop-color="#7216B8" stop-opacity="0"/>
<stop offset="0.64104" stop-color="#7216B8" stop-opacity="0.362438"/>
<stop offset="1" stop-color="#7216B8"/>
</linearGradient>
<linearGradient id="paint1_linear_19_286" x1="973.619" y1="-147.684" x2="-646.456" y2="2783.22" gradientUnits="userSpaceOnUse">
<stop stop-color="white"/>
<stop offset="0.289499" stop-color="#7216B8" stop-opacity="0"/>
<stop offset="0.64104" stop-color="#7216B8" stop-opacity="0.362438"/>
<stop offset="1" stop-color="#7216B8"/>
</linearGradient>
<linearGradient id="paint2_linear_19_286" x1="973.619" y1="-128.91" x2="-646.456" y2="2801.99" gradientUnits="userSpaceOnUse">
<stop stop-color="white"/>
<stop offset="0.289499" stop-color="#7216B8" stop-opacity="0"/>
<stop offset="0.64104" stop-color="#7216B8" stop-opacity="0.362438"/>
<stop offset="1" stop-color="#7216B8"/>
</linearGradient>
<linearGradient id="paint3_linear_19_286" x1="973.619" y1="-110.137" x2="-646.456" y2="2820.76" gradientUnits="userSpaceOnUse">
<stop stop-color="white"/>
<stop offset="0.289499" stop-color="#7216B8" stop-opacity="0"/>
<stop offset="0.64104" stop-color="#7216B8" stop-opacity="0.362438"/>
<stop offset="1" stop-color="#7216B8"/>
</linearGradient>
<linearGradient id="paint4_linear_19_286" x1="973.619" y1="-91.3633" x2="-646.456" y2="2839.54" gradientUnits="userSpaceOnUse">
<stop stop-color="white"/>
<stop offset="0.289499" stop-color="#7216B8" stop-opacity="0"/>
<stop offset="0.64104" stop-color="#7216B8" stop-opacity="0.362438"/>
<stop offset="1" stop-color="#7216B8"/>
</linearGradient>
<linearGradient id="paint5_linear_19_286" x1="973.619" y1="-72.5898" x2="-646.456" y2="2858.31" gradientUnits="userSpaceOnUse">
<stop stop-color="white"/>
<stop offset="0.289499" stop-color="#7216B8" stop-opacity="0"/>
<stop offset="0.64104" stop-color="#7216B8" stop-opacity="0.362438"/>
<stop offset="1" stop-color="#7216B8"/>
</linearGradient>
<linearGradient id="paint6_linear_19_286" x1="973.619" y1="-53.8163" x2="-646.456" y2="2877.08" gradientUnits="userSpaceOnUse">
<stop stop-color="white"/>
<stop offset="0.289499" stop-color="#7216B8" stop-opacity="0"/>
<stop offset="0.64104" stop-color="#7216B8" stop-opacity="0.362438"/>
<stop offset="1" stop-color="#7216B8"/>
</linearGradient>
<linearGradient id="paint7_linear_19_286" x1="973.619" y1="-35.0429" x2="-646.456" y2="2895.86" gradientUnits="userSpaceOnUse">
<stop stop-color="white"/>
<stop offset="0.289499" stop-color="#7216B8" stop-opacity="0"/>
<stop offset="0.64104" stop-color="#7216B8" stop-opacity="0.362438"/>
<stop offset="1" stop-color="#7216B8"/>
</linearGradient>
<linearGradient id="paint8_linear_19_286" x1="973.619" y1="-16.2694" x2="-646.456" y2="2914.63" gradientUnits="userSpaceOnUse">
<stop stop-color="white"/>
<stop offset="0.289499" stop-color="#7216B8" stop-opacity="0"/>
<stop offset="0.64104" stop-color="#7216B8" stop-opacity="0.362438"/>
<stop offset="1" stop-color="#7216B8"/>
</linearGradient>
<linearGradient id="paint9_linear_19_286" x1="973.619" y1="2.50407" x2="-646.456" y2="2933.4" gradientUnits="userSpaceOnUse">
<stop stop-color="white"/>
<stop offset="0.289499" stop-color="#7216B8" stop-opacity="0"/>
<stop offset="0.64104" stop-color="#7216B8" stop-opacity="0.362438"/>
<stop offset="1" stop-color="#7216B8"/>
</linearGradient>
<linearGradient id="paint10_linear_19_286" x1="973.619" y1="21.2775" x2="-646.456" y2="2952.18" gradientUnits="userSpaceOnUse">
<stop stop-color="white"/>
<stop offset="0.289499" stop-color="#7216B8" stop-opacity="0"/>
<stop offset="0.64104" stop-color="#7216B8" stop-opacity="0.362438"/>
<stop offset="1" stop-color="#7216B8"/>
</linearGradient>
<linearGradient id="paint11_linear_19_286" x1="973.619" y1="40.051" x2="-646.456" y2="2970.95" gradientUnits="userSpaceOnUse">
<stop stop-color="white"/>
<stop offset="0.289499" stop-color="#7216B8" stop-opacity="0"/>
<stop offset="0.64104" stop-color="#7216B8" stop-opacity="0.362438"/>
<stop offset="1" stop-color="#7216B8"/>
</linearGradient>
<linearGradient id="paint12_linear_19_286" x1="973.619" y1="58.8245" x2="-646.456" y2="2989.72" gradientUnits="userSpaceOnUse">
<stop stop-color="white"/>
<stop offset="0.289499" stop-color="#7216B8" stop-opacity="0"/>
<stop offset="0.64104" stop-color="#7216B8" stop-opacity="0.362438"/>
<stop offset="1" stop-color="#7216B8"/>
</linearGradient>
<linearGradient id="paint13_linear_19_286" x1="973.619" y1="77.5979" x2="-646.456" y2="3008.5" gradientUnits="userSpaceOnUse">
<stop stop-color="white"/>
<stop offset="0.289499" stop-color="#7216B8" stop-opacity="0"/>
<stop offset="0.64104" stop-color="#7216B8" stop-opacity="0.362438"/>
<stop offset="1" stop-color="#7216B8"/>
</linearGradient>
<linearGradient id="paint14_linear_19_286" x1="973.619" y1="96.3714" x2="-646.456" y2="3027.27" gradientUnits="userSpaceOnUse">
<stop stop-color="white"/>
<stop offset="0.289499" stop-color="#7216B8" stop-opacity="0"/>
<stop offset="0.64104" stop-color="#7216B8" stop-opacity="0.362438"/>
<stop offset="1" stop-color="#7216B8"/>
</linearGradient>
<linearGradient id="paint15_linear_19_286" x1="973.619" y1="115.145" x2="-646.456" y2="3046.04" gradientUnits="userSpaceOnUse">
<stop stop-color="white"/>
<stop offset="0.289499" stop-color="#7216B8" stop-opacity="0"/>
<stop offset="0.64104" stop-color="#7216B8" stop-opacity="0.362438"/>
<stop offset="1" stop-color="#7216B8"/>
</linearGradient>
<linearGradient id="paint16_linear_19_286" x1="973.619" y1="133.918" x2="-646.456" y2="3064.82" gradientUnits="userSpaceOnUse">
<stop stop-color="white"/>
<stop offset="0.289499" stop-color="#7216B8" stop-opacity="0"/>
<stop offset="0.64104" stop-color="#7216B8" stop-opacity="0.362438"/>
<stop offset="1" stop-color="#7216B8"/>
</linearGradient>
<linearGradient id="paint17_linear_19_286" x1="973.619" y1="152.692" x2="-646.456" y2="3083.59" gradientUnits="userSpaceOnUse">
<stop stop-color="white"/>
<stop offset="0.289499" stop-color="#7216B8" stop-opacity="0"/>
<stop offset="0.64104" stop-color="#7216B8" stop-opacity="0.362438"/>
<stop offset="1" stop-color="#7216B8"/>
</linearGradient>
<linearGradient id="paint18_linear_19_286" x1="973.619" y1="171.465" x2="-646.456" y2="3102.36" gradientUnits="userSpaceOnUse">
<stop stop-color="white"/>
<stop offset="0.289499" stop-color="#7216B8" stop-opacity="0"/>
<stop offset="0.64104" stop-color="#7216B8" stop-opacity="0.362438"/>
<stop offset="1" stop-color="#7216B8"/>
</linearGradient>
<linearGradient id="paint19_linear_19_286" x1="973.619" y1="190.239" x2="-646.456" y2="3121.14" gradientUnits="userSpaceOnUse">
<stop stop-color="white"/>
<stop offset="0.289499" stop-color="#7216B8" stop-opacity="0"/>
<stop offset="0.64104" stop-color="#7216B8" stop-opacity="0.362438"/>
<stop offset="1" stop-color="#7216B8"/>
</linearGradient>
<linearGradient id="paint20_linear_19_286" x1="973.619" y1="209.012" x2="-646.456" y2="3139.91" gradientUnits="userSpaceOnUse">
<stop stop-color="white"/>
<stop offset="0.289499" stop-color="#7216B8" stop-opacity="0"/>
<stop offset="0.64104" stop-color="#7216B8" stop-opacity="0.362438"/>
<stop offset="1" stop-color="#7216B8"/>
</linearGradient>
</defs>
</svg>
